<svg id="bg-cf" xmlns="http://www.w3.org/2000/svg" width="1046" height="391" viewBox="0 0 1046 391">
  <rect id="Rectangle_1916" data-name="Rectangle 1916" width="1046" height="391" rx="16" fill="#1e1f21"/>
  <g id="rocket_spaceship_space_d" data-name="rocket, spaceship, space, d" transform="translate(43.135 40.27)" opacity="0.3">
    <path id="Path_6679" data-name="Path 6679" d="M38.394,33.878A29.584,29.584,0,0,0,29.867,10h0a29.58,29.58,0,0,0-8.528,23.876L10,42.281l2.483,7.449h7.449L24.9,41.04h9.933L39.8,49.73h7.449l2.483-7.449Zm-8.528-5.254A3.724,3.724,0,1,1,33.59,24.9,3.725,3.725,0,0,1,29.866,28.624Z" transform="translate(-10 -10)" fill="none" stroke="#fff" stroke-linecap="round" stroke-linejoin="round" stroke-width="1"/>
    <path id="Path_6680" data-name="Path 6680" d="M45.341,78.75a7.882,7.882,0,0,0,2.313,5.587,7.883,7.883,0,0,0,2.314-5.587Z" transform="translate(-27.79 -44.607)" fill="none" stroke="#fff" stroke-linecap="round" stroke-linejoin="round" stroke-width="1"/>
    <ellipse id="Ellipse_64" data-name="Ellipse 64" cx="3.725" cy="3.725" rx="3.725" ry="3.725" transform="translate(16.141 11.175)" fill="none" stroke="#fff" stroke-linecap="round" stroke-linejoin="round" stroke-width="1"/>
  </g>
  <g id="ic-bg-space" transform="translate(712.504 69.572)" opacity="0.1">
    <path id="Path_6688" data-name="Path 6688" d="M250.229,151.435l-26.187,19.64,1.9,12.535c.744,4.891-1.524,11.755-5.024,15.255L189.1,230.672l-4.535-29.982-14.544,10.892-25.458-25.44,10.9-14.544-30-4.542,31.822-31.819c3.493-3.507,10.375-5.761,15.27-5.028l12.528,1.908,19.647-26.187C211,97.547,222.406,89.077,233.7,83.769a61.366,61.366,0,0,1,13.7-4.726l2.6-.525a125.649,125.649,0,1,0,16.585,62.257c0-2.476-.226-4.891-.37-7.331C261.5,140.686,255.86,147.216,250.229,151.435Z" transform="translate(2.94 -15)" fill="none" stroke="#fff" stroke-linecap="round" stroke-linejoin="round" stroke-width="3"/>
    <path id="Path_6689" data-name="Path 6689" d="M153.97,34.137C142.678,39.445,131.272,47.915,125,56.3L105.35,82.487,92.823,80.578c-4.895-.73-11.777,1.524-15.27,5.028L45.731,117.424l30,4.542-10.9,14.544,25.458,25.44,14.544-10.892,4.535,29.982,31.819-31.808c3.5-3.5,5.768-10.364,5.024-15.255l-1.9-12.535L170.5,101.8c8.384-6.282,16.862-17.692,22.155-28.983A44.5,44.5,0,0,1,153.97,34.137Z" transform="translate(82.675 34.636)" fill="none" stroke="#fff" stroke-linecap="round" stroke-linejoin="round" stroke-width="3"/>
    <path id="Path_6690" data-name="Path 6690" d="M89.548,38.186a61.426,61.426,0,0,0-13.7,4.726A44.5,44.5,0,0,0,114.532,81.59a61.937,61.937,0,0,0,4.74-13.681L126.7,30.754Z" transform="translate(160.792 25.861)" fill="none" stroke="#fff" stroke-linecap="round" stroke-linejoin="round" stroke-width="3"/>
    <path id="Path_6691" data-name="Path 6691" d="M170.221,89.384c-57.513,57.5-124.859,83.388-150.414,57.841C3,130.406,8.566,95.5,30.642,57.213,8.566,95.5,3,130.406,19.807,147.224,45.362,172.772,112.708,146.879,170.221,89.384Z" transform="translate(-10 94.488)" fill="none" stroke="#fff" stroke-linecap="round" stroke-linejoin="round" stroke-width="3"/>
  </g>
  <g id="rocket_spaceship_space_r" data-name="rocket, spaceship, space, r" transform="translate(331.575 245.964)" opacity="0.1">
    <path id="Path_13165" data-name="Path 13165" d="M20,106.3A20.224,20.224,0,0,0,40.223,86.081V43.174A20.223,20.223,0,0,0,20,63.4Z" transform="translate(-20 1.553)" fill="none" stroke="#fff" stroke-linecap="round" stroke-linejoin="round" stroke-width="1"/>
    <path id="Path_13166" data-name="Path 13166" d="M85.223,106.3A20.224,20.224,0,0,1,65,86.081V43.174A20.222,20.222,0,0,1,85.223,63.4Z" transform="translate(-4.331 1.553)" fill="none" stroke="#fff" stroke-linecap="round" stroke-linejoin="round" stroke-width="1"/>
    <path id="Path_13167" data-name="Path 13167" d="M46.251,101.252a5.056,5.056,0,0,0,10.112,0V48.227a5.056,5.056,0,0,0-10.112,0Z" transform="translate(-10.859 1.552)" fill="none" stroke="#fff" stroke-linecap="round" stroke-linejoin="round" stroke-width="1"/>
    <path id="Path_13168" data-name="Path 13168" d="M76.979,29.131a33.333,33.333,0,0,1-42.882,0,43.771,43.771,0,0,1,7.274-9.661h0A43.8,43.8,0,0,1,55.539,10,43.851,43.851,0,0,1,69.71,19.471H69.7A43.85,43.85,0,0,1,76.979,29.131Z" transform="translate(-15.091 -9.999)" fill="none" stroke="#fff" stroke-linecap="round" stroke-linejoin="round" stroke-width="1"/>
    <path id="Path_13169" data-name="Path 13169" d="M78.406,24.19a33.333,33.333,0,0,1-42.882,0A43.429,43.429,0,0,0,30,45.421v5.536a20.133,20.133,0,0,1,6.74-1.174V92.689a20.1,20.1,0,0,1-1.176,6.742H51.908V54.837a5.056,5.056,0,0,1,10.112,0v44.6H78.361a20.135,20.135,0,0,1-1.174-6.742V49.784a20.109,20.109,0,0,1,6.74,1.174V45.423A43.444,43.444,0,0,0,78.406,24.19Z" transform="translate(-16.518 -5.058)" fill="none" stroke="#fff" stroke-linecap="round" stroke-linejoin="round" stroke-width="1"/>
  </g>
</svg>
