<svg id="flitbase-logo" xmlns="http://www.w3.org/2000/svg" width="113.77" height="16.421" viewBox="0 0 113.77 16.421">
  <path id="Path_7231" data-name="Path 7231" d="M-131.175-26.551h3.408v-4.961h5.123v-2.967h-5.126v-2.967h5.564v-3.015h-8.972Zm11.541,0h9.461v-2.921h-6.05V-40.456h-3.408Zm12.264,0h3.41V-40.456h-3.408Zm9.254,0h3.431V-37.443h3.152v-3.015h-9.69v3.015h3.107Zm9.319,0h6.143c2.643,0,4.172-1.762,4.172-3.686a3.922,3.922,0,0,0-2.04-3.431v-.047a3.3,3.3,0,0,0,1.507-2.851,4.014,4.014,0,0,0-1.273-2.818,4.014,4.014,0,0,0-2.9-1.077H-88.8Zm3.384-8.369v-2.569h1.624a1.275,1.275,0,0,1,.947.348,1.275,1.275,0,0,1,.4.927,1.266,1.266,0,0,1-.386.945,1.266,1.266,0,0,1-.958.353Zm0,5.332v-2.434h2.063a1.226,1.226,0,0,1,.915.333,1.226,1.226,0,0,1,.383.9,1.171,1.171,0,0,1-.374.9,1.171,1.171,0,0,1-.925.305Zm8.3,3.037h3.663l.673-1.437h5.494l.7,1.437h3.663L-69.743-40.92h-.6Zm5.407-3.871,1.623-3.524h.047l1.6,3.524Zm10.9-.208A4.413,4.413,0,0,0-59.452-27.3a4.413,4.413,0,0,0,3.392,1.21,4.609,4.609,0,0,0,4.706-4.5c0-2.183-1.159-3.57-3.639-4.312-1.182-.347-2.457-.533-2.457-1.576a1.343,1.343,0,0,1,.432-.993,1.343,1.343,0,0,1,1.024-.352,1.352,1.352,0,0,1,1.044.393,1.352,1.352,0,0,1,.393,1.044h3.2c-.185-2.573-1.646-4.544-4.729-4.544a4.63,4.63,0,0,0-4.729,4.5c0,2.391,1.3,3.477,3.639,4.312,1.136.394,2.5.7,2.5,1.738a1.226,1.226,0,0,1-.423.917,1.226,1.226,0,0,1-.968.288A1.449,1.449,0,0,1-57.5-30.626Zm12.907,4.079h9.461v-2.921H-44.5v-2.5h5.355v-2.967H-44.5v-2.5h5.8v-3.015h-9.2Z" transform="translate(152.214 41.812)" fill="#1e3471"/>
  <g id="Group_5242" data-name="Group 5242" transform="translate(0 0)">
    <ellipse id="Ellipse_6001" data-name="Ellipse 6001" cx="5.018" cy="5.246" rx="5.018" ry="5.246" transform="translate(6.386)" fill="#f5a523"/>
    <ellipse id="Ellipse_6002" data-name="Ellipse 6002" cx="5.93" cy="5.474" rx="5.93" ry="5.474" transform="translate(0 5.474)" fill="#3565eb"/>
    <rect id="Rectangle_1334" data-name="Rectangle 1334" width="11.86" height="10.491" fill="#1e3471"/>
  </g>
</svg>
