<svg xmlns="http://www.w3.org/2000/svg" width="659" height="501" fill="none"  xmlns:v="https://vecta.io/nano"><style><![CDATA[.B{fill:#fff}.C{fill:#000}.D{stroke-width:1.095}.E{color-interpolation-filters:sRGB}.F{flood-opacity:0}.G{stroke-linecap:round}.H{fill:#1a61db}.I{stroke-linejoin:round}.J{fill:#424b4f}.K{stroke:#323232}.L{stroke:#e9eef2}.M{fill:#e9eef2}.N{fill-opacity:.12}.O{fill-opacity:.13}.P{stroke-miterlimit:1.5728}]]></style><path d="M116.541 0H546.838L499.652 183.944H162.043L116.541 0Z" fill="url(#G)"/><circle cx="485.155" cy="441.973" r="30.203" stroke="#fbeed9" stroke-width="13.31"/><path d="M102.308 307.668H562.714" stroke="#8e95a3" stroke-width="2.473" stroke-dasharray="4.95 6.9" class="G P"/><g filter="url(#A)" class="B"><rect x="161.432" y="178.469" width="338.325" height="275.916" rx="4.38"/></g><path d="M161.432 182.849a4.38 4.38 0 0 1 4.38-4.38h329.566a4.38 4.38 0 0 1 4.379 4.38v29.562H161.432v-29.562z" fill="#2b2b2b"/><path d="M189.987 199.418v-9.052h-1.221v6.766l-4.087-6.766h-1.208v9.052h1.221v-6.819l4.126 6.819h1.169zm2.465-9.052v9.052h5.492v-1.143h-4.27v-2.733h3.613v-1.143h-3.613v-2.89h4.139v-1.143h-5.361zm16.521 0l-2.273 7.082-1.668-5.86h-.933l-1.669 5.86-2.273-7.082h-1.314l3.062 9.052h1.064l1.59-5.649 1.603 5.649h1.064l3.061-9.052h-1.314zm11.614 2.339c0-1.433-.933-2.339-2.457-2.339h-3.416v9.052h3.705c1.682 0 2.654-1.208 2.654-2.614 0-.894-.618-1.997-1.629-2.207.854-.316 1.143-1.13 1.143-1.892zm-4.638 1.419v-2.628h2.05c.827 0 1.34.46 1.34 1.248 0 .736-.408 1.38-1.209 1.38h-2.181zm2.378 1.077c.907 0 1.485.854 1.485 1.59 0 .775-.552 1.484-1.446 1.484h-2.417v-3.074h2.378zm4.046-.289c0 2.575 1.997 4.638 4.572 4.638 2.588 0 4.599-2.063 4.599-4.638 0-2.562-2.011-4.651-4.599-4.651-2.575 0-4.572 2.089-4.572 4.651zm1.222 0c0-1.932 1.458-3.469 3.35-3.469 1.905 0 3.364 1.537 3.364 3.469s-1.459 3.455-3.364 3.455c-1.892 0-3.35-1.524-3.35-3.455zm9.235 0c0 2.575 1.997 4.638 4.572 4.638 2.589 0 4.599-2.063 4.599-4.638 0-2.562-2.01-4.651-4.599-4.651-2.575 0-4.572 2.089-4.572 4.651zm1.222 0c0-1.932 1.458-3.469 3.35-3.469 1.905 0 3.364 1.537 3.364 3.469s-1.459 3.455-3.364 3.455c-1.892 0-3.35-1.524-3.35-3.455zm12.073-.026l3.482-4.52h-1.511l-2.996 3.915v-3.915h-1.222v9.052h1.222v-3.862l3.587 3.862h1.643l-4.205-4.532zm5.349-4.52v9.052h1.222v-9.052h-1.222zm10.212 9.052v-9.052h-1.221v6.766l-4.087-6.766h-1.208v9.052h1.222v-6.819l4.125 6.819h1.169zm9.508-7.962c-.789-.735-1.853-1.195-3.062-1.195-2.575 0-4.572 2.089-4.572 4.651 0 2.575 1.997 4.638 4.572 4.638 2.589 0 4.284-1.485 4.284-4.678h-3.968v1.065h2.575c-.066 1.511-1.275 2.443-2.891 2.443-1.892 0-3.35-1.537-3.35-3.468 0-1.918 1.458-3.482 3.35-3.482.841 0 1.603.329 2.181.841l.881-.815z" class="B"/><path d="M186.974 235.738c0-.954-.622-1.559-1.638-1.559h-2.277v6.035h2.47a1.68 1.68 0 0 0 1.769-1.743c0-.595-.411-1.331-1.086-1.471.57-.211.762-.754.762-1.262zm-3.092.946v-1.751h1.367c.552 0 .893.306.893.832 0 .49-.271.919-.806.919h-1.454zm1.586.719c.604 0 .989.569.989 1.06 0 .516-.367.989-.963.989h-1.612v-2.049h1.586zm2.697-.193c0 1.717 1.331 3.092 3.048 3.092 1.726 0 3.066-1.375 3.066-3.092 0-1.708-1.34-3.101-3.066-3.101-1.717 0-3.048 1.393-3.048 3.101zm.814 0c0-1.288.973-2.312 2.234-2.312 1.27 0 2.242 1.024 2.242 2.312s-.972 2.304-2.242 2.304c-1.261 0-2.234-1.016-2.234-2.304zm6.157 0c0 1.717 1.332 3.092 3.049 3.092 1.725 0 3.065-1.375 3.065-3.092 0-1.708-1.34-3.101-3.065-3.101-1.717 0-3.049 1.393-3.049 3.101zm.815 0c0-1.288.972-2.312 2.234-2.312 1.27 0 2.242 1.024 2.242 2.312s-.972 2.304-2.242 2.304c-1.262 0-2.234-1.016-2.234-2.304zm8.049-.018l2.321-3.013h-1.007l-1.997 2.61v-2.61h-.815v6.035h.815v-2.575l2.391 2.575h1.095L204 237.192zm3.566-3.013v6.035h.814v-6.035h-.814zm6.808 6.035v-6.035h-.815v4.511l-2.724-4.511h-.806v6.035h.815v-4.546l2.75 4.546h.78zm6.338-5.308c-.525-.49-1.235-.797-2.041-.797-1.717 0-3.048 1.393-3.048 3.101 0 1.717 1.331 3.092 3.048 3.092 1.726 0 2.856-.99 2.856-3.118h-2.646v.709h1.717c-.044 1.007-.849 1.629-1.927 1.629-1.261 0-2.233-1.024-2.233-2.312 0-1.279.972-2.321 2.233-2.321.561 0 1.069.219 1.454.56l.587-.543zm3.623-.727v.771h1.831v5.264h.823v-5.264h1.831v-.771h-4.485zm7.904 6.035v-2.776l2.313-3.259h-.981l-1.752 2.444-1.735-2.444h-.972l2.286 3.259v2.776h.841zm3.153-6.035v6.035h.823v-2.26h1.586c1.278 0 1.795-.937 1.795-1.883s-.517-1.892-1.795-1.892h-2.409zm2.4.762c.701 0 .99.578.99 1.13 0 .561-.298 1.121-1.034 1.121h-1.533v-2.251h1.577zm2.912-.762v6.035h3.661v-.762h-2.847v-1.822h2.409v-.762h-2.409v-1.927h2.76v-.762h-3.574zm-55.306 62.97c1.716 0 2.715-1.288 2.715-3.004s-.999-3.031-2.715-3.031h-2.339v6.035h2.339zm-1.525-.762v-4.511h1.525c1.252 0 1.9.998 1.9 2.269s-.648 2.242-1.9 2.242h-1.525zm6.412-1.507l.998-2.68.999 2.68h-1.997zm2.277.736l.587 1.533h.859l-2.287-6.035h-.876l-2.294 6.035h.867l.587-1.533h2.557zm1.338-4.502v.771h1.831v5.264h.823v-5.264h1.831v-.771H193.9zm5.557 0v6.035h3.661v-.762h-2.847v-1.822h2.409v-.762h-2.409v-1.927h2.76v-.762h-3.574zm8.883 2.339c-.455 0-.77-.412-.77-.833 0-.429.341-.744.805-.744.342 0 .631.193.806.499l.648-.403c-.306-.517-.832-.858-1.454-.858-.876 0-1.568.674-1.568 1.506 0 .421.149.815.43 1.087a1.85 1.85 0 0 0-.894 1.594c0 1.077.806 1.927 1.971 1.927.604 0 1.183-.228 1.489-.648.237.376.718.648 1.384.648v-.736c-.797 0-.911-.526-.911-1.191v-1.2h.762v-.64h-.762v-.788h-.753v.78h-1.183zm1.183.648v1.252c-.026.631-.517 1.113-1.209 1.113-.727 0-1.209-.5-1.209-1.165a1.22 1.22 0 0 1 1.218-1.2h1.2zm4.616-2.987v.771h1.831v5.264h.823v-5.264h1.831v-.771h-4.485zm5.556 0v6.035h.815v-6.035h-.815zm5.731 4.432l-2.128-4.432h-.745l-.736 6.035h.806l.552-4.537 1.901 3.871h.718l1.883-3.871.552 4.537h.806l-.736-6.035h-.744l-2.129 4.432zm4.91-4.432v6.035h3.662v-.762h-2.847v-1.822h2.409v-.762h-2.409v-1.927h2.759v-.762h-3.574z" class="C"/><rect x="182.236" y="246.353" width="96.352" height="25.183" rx="2.19" class="H"/><path d="M212.949 261.323c-.838 0-1.557-.601-1.557-1.547v-4.454h-.927v4.454c0 1.478 1.134 2.434 2.484 2.434 1.33 0 2.483-.956 2.483-2.434v-4.454h-.926v4.454c0 .946-.72 1.547-1.557 1.547zm5.665-1.094c.345.079.621.237.611.582s-.275.571-.699.601c-.286.019-.522-.03-.729-.158-.227-.108-.345-.325-.375-.522h-.818c.03.946.887 1.478 1.715 1.478.956 0 1.783-.513 1.783-1.38 0-.522-.246-1.103-1.192-1.34l-.68-.167c-.236-.069-.453-.168-.542-.355-.049-.099-.049-.217-.01-.365.069-.246.345-.414.69-.414.355 0 .67.178.719.523h.858c-.079-.936-.818-1.301-1.597-1.301-.827 0-1.517.502-1.596 1.173-.079.857.394 1.271 1.232 1.497l.63.148zm3.247-.778c.108-.779.7-1.232 1.458-1.232.749 0 1.291.453 1.4 1.232h-2.858zm3.745.345c0-1.459-.976-2.385-2.287-2.385s-2.355.926-2.355 2.385 1.045 2.414 2.355 2.414c.897 0 1.725-.404 2.119-1.222l-.769-.296c-.266.463-.768.71-1.32.71-.788 0-1.38-.473-1.488-1.252h3.735c.01-.108.01-.246.01-.354zm2.036.64c0-1.222.374-2.168 1.261-2.168.188 0 .434.04.68.158l.138-.838c-.128-.088-.473-.177-.798-.177-.601 0-1.045.315-1.281 1.133v-1.035h-.897v4.602h.897v-1.675zm6.207.966c.305.512.966.808 1.606.808 1.262 0 2.336-.946 2.336-2.405 0-1.468-1.055-2.394-2.326-2.394-.67 0-1.311.266-1.616.788v-3.193h-.897v7.105h.897v-.709zm.01-1.606c0-.986.778-1.508 1.527-1.508.828 0 1.488.601 1.488 1.508s-.66 1.537-1.488 1.537c-.818 0-1.527-.562-1.527-1.537zm7.226 2.414c1.31 0 2.414-.956 2.414-2.414s-1.104-2.385-2.414-2.385-2.405.926-2.405 2.385 1.094 2.414 2.405 2.414zm0-.867c-.838 0-1.518-.601-1.518-1.547 0-.927.68-1.508 1.518-1.508.818 0 1.517.581 1.517 1.508 0 .946-.699 1.547-1.517 1.547zm5.706.867c1.311 0 2.415-.956 2.415-2.414s-1.104-2.385-2.415-2.385-2.404.926-2.404 2.385 1.094 2.414 2.404 2.414zm0-.867c-.837 0-1.517-.601-1.517-1.547 0-.927.68-1.508 1.517-1.508.818 0 1.518.581 1.518 1.508 0 .946-.7 1.547-1.518 1.547zm4.495-1.478l2.099 2.246h1.182l-2.443-2.611 1.97-1.991h-1.222l-1.586 1.607v-4.11h-.887v7.105h.887v-2.246zm4.946-2.356h-.887v4.602h.887v-4.602zm-1.064-1.694c0 .344.276.581.621.581s.621-.237.621-.581-.276-.582-.621-.582-.621.237-.621.582zm3.461 3.813c0-.975.65-1.34 1.3-1.34.631 0 1.015.443 1.015 1.222v2.601h.897v-2.66c0-1.301-.621-2.04-1.774-2.04-.502 0-1.172.236-1.438.788v-.69h-.897v4.602h.897v-2.483zm5.345 3.144c-.118.049-.64.335-.749.394.444.818 1.222 1.241 2.08 1.241 1.527 0 2.512-.827 2.512-2.995v-3.903h-.887v.72c-.315-.522-.975-.818-1.616-.818-1.261 0-2.335.956-2.335 2.414s1.074 2.385 2.335 2.385c.651 0 1.331-.296 1.616-.848 0 .04.01.069.01.109 0 1.527-.64 2.089-1.635 2.089-.513 0-1.055-.276-1.331-.788zm2.947-2.957c0 .986-.779 1.518-1.528 1.518a1.44 1.44 0 0 1-1.498-1.518c0-.896.671-1.527 1.498-1.527.818 0 1.528.542 1.528 1.527z" class="B"/><g clip-path="url(#H)" class="B"><path d="M199.786 259.833c-.804 0-1.191.445-2.512.445s-1.704-.445-2.512-.445c-2.08 0-3.767 1.674-3.767 3.736v1.157a1.34 1.34 0 0 0 1.345 1.334h9.868a1.34 1.34 0 0 0 1.346-1.334v-1.157c0-2.062-1.688-3.736-3.768-3.736zm2.871 4.893a.45.45 0 0 1-.449.445h-9.868a.45.45 0 0 1-.448-.445v-1.157c0-1.57 1.287-2.846 2.87-2.846.55 0 1.097.445 2.512.445s1.963-.445 2.512-.445c1.584 0 2.871 1.276 2.871 2.846v1.157zm-5.383-5.782c1.982 0 3.589-1.593 3.589-3.559s-1.607-3.558-3.589-3.558-3.588 1.593-3.588 3.558 1.606 3.559 3.588 3.559zm0-6.228c1.483 0 2.692 1.198 2.692 2.669s-1.209 2.669-2.692 2.669-2.691-1.198-2.691-2.669 1.208-2.669 2.691-2.669z"/></g><g class="D"><rect x="290.083" y="246.9" width="87.592" height="24.088" rx="1.642" stroke="#e6e8e7" class="B"/><path d="M304.135 265.697v-3.285c0-1.008.817-1.825 1.825-1.825s1.824.817 1.824 1.825v3.285h4.015v-6.268a1.46 1.46 0 0 0-.428-1.032l-4.895-4.895a.73.73 0 0 0-1.032 0l-4.896 4.895a1.46 1.46 0 0 0-.428 1.032v6.268h4.015z" stroke="#424b4f" class="I"/></g><path d="M320.025 255.322v6.79h.916v-6.79h-.916zm3.491 4.307c0-.976.65-1.341 1.3-1.341.631 0 1.015.444 1.015 1.222v2.602h.897v-2.661c0-1.301-.621-2.04-1.774-2.04-.502 0-1.172.237-1.438.789v-.69h-.897v4.602h.897v-2.483zm5.897-2.119v-1.734h-.897v1.734h-.827v.759h.827v3.843h.897v-3.843h.976v-.759h-.976zm2.516 1.941c.108-.778.699-1.232 1.458-1.232.749 0 1.291.454 1.399 1.232h-2.857zm3.744.345c0-1.458-.975-2.385-2.286-2.385s-2.355.927-2.355 2.385 1.044 2.414 2.355 2.414c.897 0 1.725-.404 2.119-1.222l-.769-.295c-.266.463-.769.709-1.32.709-.789 0-1.38-.473-1.488-1.251h3.734c.01-.109.01-.247.01-.355zm2.037.641c0-1.222.374-2.168 1.261-2.168.187 0 .434.039.68.157l.138-.837c-.128-.089-.473-.178-.798-.178-.601 0-1.045.316-1.281 1.134v-1.035h-.897v4.602h.897v-1.675zm3.887-.808c0-.976.651-1.341 1.301-1.341.631 0 1.015.444 1.015 1.222v2.602h.897v-2.661c0-1.301-.621-2.04-1.774-2.04-.502 0-1.172.237-1.439.789v-.69h-.896v4.602h.896v-2.483zm8.302 2.483h.887v-4.602h-.887v.69c-.315-.523-.975-.789-1.616-.789-1.261 0-2.335.927-2.335 2.395 0 1.458 1.074 2.404 2.335 2.404.641 0 1.311-.295 1.616-.808v.71zm-.01-2.316c0 .976-.709 1.537-1.527 1.537-.828 0-1.498-.63-1.498-1.537s.67-1.508 1.498-1.508c.749 0 1.527.523 1.527 1.508zm2.398-4.789v7.105h.897v-7.105h-.897zm8.099 4.986c0 .986-.65 1.34-1.3 1.34-.631 0-1.005-.443-1.005-1.222v-2.601h-.897v2.661c-.01 1.3.621 2.039 1.774 2.039.502 0 1.143-.236 1.428-.788v.69h.897v-4.602h-.897v2.483zm4.066.237c.344.079.62.236.61.581s-.275.572-.699.601c-.286.02-.522-.029-.729-.157-.227-.109-.345-.326-.375-.523h-.818c.03.946.887 1.478 1.715 1.478.956 0 1.783-.512 1.783-1.379 0-.522-.246-1.104-1.192-1.34l-.68-.168c-.236-.069-.453-.167-.542-.355-.049-.098-.049-.216-.01-.364.069-.247.345-.414.69-.414.355 0 .67.177.72.522h.857c-.079-.936-.818-1.301-1.597-1.301-.827 0-1.517.503-1.596 1.173-.079.857.394 1.271 1.232 1.498l.631.148zm3.246-.779c.108-.778.7-1.232 1.458-1.232.749 0 1.291.454 1.4 1.232h-2.858zm3.745.345c0-1.458-.976-2.385-2.287-2.385s-2.355.927-2.355 2.385 1.045 2.414 2.355 2.414c.897 0 1.725-.404 2.119-1.222l-.769-.295c-.266.463-.768.709-1.32.709-.788 0-1.38-.473-1.488-1.251h3.735c.01-.109.01-.247.01-.355z" class="J"/><rect x="389.72" y="246.9" width="87.592" height="24.088" rx="1.642" stroke="#e6e8e7" class="B D"/><g clip-path="url(#I)" class="D I K"><path d="M409.146 254.847l-9.29 9.29 9.29-9.29z"/><path d="M404.501 252.923a6.57 6.57 0 0 0-6.57 6.569 6.57 6.57 0 0 0 6.57 6.57 6.57 6.57 0 0 0 6.569-6.57 6.57 6.57 0 0 0-6.569-6.569z"/></g><path d="M419.885 261.324c-.837 0-1.557-.601-1.557-1.547v-4.454h-.926v4.454c0 1.478 1.133 2.434 2.483 2.434 1.331 0 2.484-.956 2.484-2.434v-4.454h-.927v4.454c0 .946-.719 1.547-1.557 1.547zm4.926-1.695c0-.975.651-1.34 1.301-1.34.631 0 1.015.443 1.015 1.222v2.601h.897v-2.66c0-1.301-.621-2.04-1.774-2.04-.503 0-1.173.236-1.439.788v-.69h-.897v4.602h.897v-2.483zm8.302 2.483H434v-4.602h-.887v.69c-.315-.522-.976-.788-1.616-.788-1.261 0-2.335.926-2.335 2.394 0 1.459 1.074 2.405 2.335 2.405.64 0 1.311-.296 1.616-.808v.709zm-.01-2.315c0 .975-.709 1.537-1.527 1.537-.828 0-1.498-.631-1.498-1.537s.67-1.508 1.498-1.508c.749 0 1.527.522 1.527 1.508zm1.816-2.287l1.912 4.602h.867l1.912-4.602h-.956l-1.389 3.459-1.4-3.459h-.946zm9.145 4.602h.887v-4.602h-.887v.69c-.315-.522-.975-.788-1.616-.788-1.261 0-2.335.926-2.335 2.394 0 1.459 1.074 2.405 2.335 2.405.641 0 1.311-.296 1.616-.808v.709zm-.01-2.315c0 .975-.709 1.537-1.527 1.537-.828 0-1.498-.631-1.498-1.537s.67-1.508 1.498-1.508c.749 0 1.527.522 1.527 1.508zm3.285-2.287h-.887v4.602h.887v-4.602zm-1.064-1.694c0 .344.275.581.62.581s.621-.237.621-.581-.276-.582-.621-.582-.62.237-.62.582zm2.563-.809v7.105h.897v-7.105h-.897zm6.043 7.105h.887v-4.602h-.887v.69c-.316-.522-.976-.788-1.616-.788-1.262 0-2.336.926-2.336 2.394 0 1.459 1.074 2.405 2.336 2.405.64 0 1.31-.296 1.616-.808v.709zm-.01-2.315c0 .975-.71 1.537-1.528 1.537-.827 0-1.497-.631-1.497-1.537s.67-1.508 1.497-1.508c.749 0 1.528.522 1.528 1.508zm3.294 1.606c.306.512.966.808 1.606.808 1.262 0 2.336-.946 2.336-2.405 0-1.468-1.055-2.394-2.326-2.394-.67 0-1.31.266-1.616.788v-3.193h-.897v7.105h.897v-.709zm.01-1.606c0-.986.778-1.508 1.527-1.508.828 0 1.488.601 1.488 1.508s-.66 1.537-1.488 1.537c-.818 0-1.527-.562-1.527-1.537zm5.127-4.79v7.105h.897v-7.105h-.897zm2.988 4.445c.108-.779.699-1.232 1.458-1.232.749 0 1.291.453 1.399 1.232h-2.857zm3.744.345c0-1.459-.975-2.385-2.286-2.385s-2.355.926-2.355 2.385 1.044 2.414 2.355 2.414c.897 0 1.724-.404 2.119-1.222l-.769-.296c-.266.463-.769.71-1.32.71-.789 0-1.38-.473-1.488-1.252h3.734c.01-.108.01-.246.01-.354z" class="J"/><rect x="182.236" y="405.114" width="96.352" height="25.183" rx="2.19" fill="#00bd90"/><g class="B"><path d="M197.706 417.768a2.15 2.15 0 0 1-1.763.917c-1.232 0-2.158-1.015-2.158-2.287 0-1.261.926-2.296 2.158-2.296.719 0 1.33.355 1.724.868l1.005-.72c-.591-.828-1.576-1.34-2.729-1.34-1.932 0-3.42 1.567-3.42 3.488 0 1.912 1.488 3.479 3.42 3.479 1.182 0 2.168-.542 2.759-1.38l-.996-.729zm4.005.926c-.67 0-1.202-.482-1.202-1.231a1.15 1.15 0 1 1 2.404 0c0 .749-.532 1.231-1.202 1.231zm0 1.173c1.301 0 2.394-.956 2.394-2.404 0-1.459-1.093-2.385-2.394-2.385s-2.395.926-2.395 2.385c0 1.448 1.094 2.404 2.395 2.404zm4.675-2.542c0-.799.453-1.074 1.005-1.074.522 0 .877.354.877 1.024v2.503h1.202v-2.719c0-1.311-.641-1.981-1.715-1.981-.542 0-1.103.276-1.369.778v-.68h-1.203v4.602h1.203v-2.453zm9.523-2.149h-3.499v-.364c0-.562.188-.986.749-.986h.503v-1.153h-.503c-1.301 0-1.961.789-1.961 2.139v.364h-.877v.966h.877v3.636h1.212v-3.636h2.306v3.636h1.193v-4.602zm-1.37-1.783c0 .424.355.729.778.729s.759-.305.759-.729c0-.404-.335-.72-.759-.72s-.778.316-.778.72zm3.924 4.759c0-1.222.335-1.951 1.153-1.951.118 0 .414 0 .699.128l.207-1.084c-.187-.108-.433-.167-.759-.167-.522 0-1.064.345-1.3 1.182v-1.084h-1.202v4.602h1.202v-1.626zm8.003-1.901c.502 0 .867.354.867 1.024v2.503h1.192v-2.631c0-1.35-.66-2.069-1.774-2.069-.354 0-1.024.098-1.448.867-.266-.562-.729-.818-1.468-.857-.444 0-1.055.207-1.321.768v-.68h-1.202v4.602h1.202v-2.453c0-.789.473-1.074.966-1.074.473 0 .837.354.847.995v2.532h1.202v-2.453c0-.71.385-1.074.937-1.074zm7.029 1.212a1.2 1.2 0 0 1 1.222-1.242c.67 0 1.212.493 1.212 1.242 0 .758-.542 1.261-1.212 1.261-.661 0-1.222-.493-1.222-1.261zm-.02 2.315v-.62c.246.463.838.719 1.439.719 1.212 0 2.256-.936 2.256-2.395 0-1.468-1.044-2.404-2.256-2.404-.621 0-1.193.246-1.439.709v-3.114h-1.202v7.105h1.202zm6.882-1.084c-.67 0-1.202-.482-1.202-1.231a1.15 1.15 0 1 1 2.405 0c0 .749-.532 1.231-1.203 1.231zm0 1.173c1.301 0 2.395-.956 2.395-2.404 0-1.459-1.094-2.385-2.395-2.385s-2.394.926-2.394 2.385c0 1.448 1.094 2.404 2.394 2.404zm5.582-1.173c-.67 0-1.202-.482-1.202-1.231a1.15 1.15 0 1 1 2.404 0c0 .749-.532 1.231-1.202 1.231zm0 1.173c1.301 0 2.394-.956 2.394-2.404 0-1.459-1.093-2.385-2.394-2.385s-2.395.926-2.395 2.385c0 1.448 1.094 2.404 2.395 2.404zm6.399-.089h1.508l-2.345-2.581 1.931-2.021h-1.557l-1.271 1.38v-3.883h-1.192v7.105h1.192v-1.971l1.734 1.971zm3.376-4.602h-1.193v4.602h1.193v-4.602zm-1.37-1.783c0 .424.355.729.779.729s.758-.305.758-.729c0-.404-.335-.72-.758-.72s-.779.316-.779.72zm3.93 3.932c0-.799.453-1.074 1.005-1.074.522 0 .877.354.877 1.024v2.503h1.202v-2.719c0-1.311-.64-1.981-1.714-1.981-.542 0-1.104.276-1.37.778v-.68h-1.202v4.602h1.202v-2.453zm7.847.147c0 .779-.63 1.262-1.251 1.262-.67 0-1.242-.493-1.242-1.262a1.21 1.21 0 0 1 1.242-1.241c.66 0 1.251.453 1.251 1.241zm-2.591 2.75l-.976.492c.404.838 1.242 1.36 2.198 1.36 1.596 0 2.572-.906 2.572-2.956v-3.942h-1.173v.621c-.266-.463-.867-.719-1.468-.719-1.202 0-2.306.936-2.306 2.414 0 1.459 1.104 2.385 2.306 2.385.591 0 1.232-.266 1.468-.729.079.965-.236 1.833-1.399 1.833-.483 0-1.025-.296-1.222-.759z"/><rect x="290.083" y="405.662" width="95.257" height="24.088" rx="1.642" stroke="#ebf0f3" class="D"/></g><path d="M308.469 418.399a2.72 2.72 0 0 1-1.971.827c-1.567 0-2.641-1.261-2.641-2.828 0-1.576 1.074-2.838 2.641-2.838.789 0 1.459.316 1.961.818l.454-.453c-.621-.631-1.459-1.015-2.415-1.015-1.921 0-3.291 1.567-3.291 3.488 0 1.932 1.37 3.479 3.291 3.479.956 0 1.804-.384 2.424-1.015l-.453-.463zm5.982-3.223h-.66v.759c-.345-.581-1.064-.857-1.734-.857-1.311 0-2.355.926-2.355 2.385s1.044 2.414 2.355 2.414c.67 0 1.389-.306 1.734-.887v.788h.66v-4.602zm-4.089 2.287c0-1.055.739-1.725 1.695-1.725.827 0 1.734.582 1.734 1.725s-.788 1.754-1.734 1.754c-.956 0-1.695-.73-1.695-1.754zm6.349-.197c0-1.124.798-1.538 1.527-1.538.71 0 1.114.513 1.114 1.37v2.68h.66v-2.68c.01-1.261-.641-2.02-1.774-2.02-.532 0-1.241.256-1.527.857v-.759h-.66v4.602h.66v-2.512zm8.116 1.517c-.325.296-.729.443-1.193.443-.955 0-1.754-.699-1.754-1.763s.799-1.735 1.754-1.735a1.79 1.79 0 0 1 1.193.434l.463-.463c-.434-.394-1.015-.621-1.656-.621-1.31 0-2.404.926-2.404 2.385s1.094 2.414 2.404 2.414c.641 0 1.232-.227 1.666-.631l-.473-.463zm3.55 1.094c.936 0 1.714-.473 2.099-1.301l-.66-.148c-.286.503-.808.798-1.439.798-.848 0-1.547-.561-1.656-1.458h3.903c.009-.089.009-.197.009-.305 0-1.459-.946-2.385-2.256-2.385s-2.326.926-2.326 2.385 1.015 2.414 2.326 2.414zm-1.656-2.72c.128-.877.789-1.429 1.656-1.429.857 0 1.458.552 1.586 1.429h-3.242zm5.781-4.474h-.65v7.095h.65v-7.095zm4.21 7.095h.66v-.788c.345.581 1.064.887 1.734.887 1.311 0 2.355-.956 2.355-2.414s-1.044-2.385-2.355-2.385c-.67 0-1.389.276-1.734.857v-3.252h-.66v7.095zm4.089-2.315c0 1.024-.739 1.754-1.695 1.754-.946 0-1.734-.611-1.734-1.754s.906-1.725 1.734-1.725c.956 0 1.695.67 1.695 1.725zm4.033 2.414c1.311 0 2.405-.956 2.405-2.414s-1.094-2.385-2.405-2.385-2.404.926-2.404 2.385 1.094 2.414 2.404 2.414zm0-.651c-.956 0-1.754-.699-1.754-1.763s.798-1.735 1.754-1.735 1.754.67 1.754 1.735-.798 1.763-1.754 1.763zm5.774.651c1.311 0 2.405-.956 2.405-2.414s-1.094-2.385-2.405-2.385-2.404.926-2.404 2.385 1.094 2.414 2.404 2.414zm0-.651c-.956 0-1.754-.699-1.754-1.763s.798-1.735 1.754-1.735 1.754.67 1.754 1.735-.798 1.763-1.754 1.763zm4.335-1.96l2.375 2.512h.897l-2.493-2.631 1.971-1.971h-.927l-1.823 1.823v-4.316h-.65v7.095h.65v-2.512zm4.783-2.09h-.65v4.602h.65v-4.602zm-.818-1.714c0 .276.227.473.503.473s.502-.197.502-.473-.226-.473-.502-.473-.503.197-.503.473zm3.07 3.804c0-1.124.798-1.538 1.528-1.538.709 0 1.113.513 1.113 1.37v2.68h.66v-2.68c.01-1.261-.64-2.02-1.773-2.02-.533 0-1.242.256-1.528.857v-.759h-.66v4.602h.66v-2.512zm5.18.226c0-1.025.739-1.754 1.695-1.754.946 0 1.734.611 1.734 1.754s-.907 1.725-1.734 1.725c-.956 0-1.695-.67-1.695-1.725zm-.355 3.439a2.25 2.25 0 0 0 1.981 1.143c1.448 0 2.463-.778 2.463-3.025v-3.873h-.66v.789c-.345-.582-1.064-.887-1.734-.887-1.311 0-2.356.956-2.356 2.414s1.045 2.385 2.356 2.385c.67 0 1.428-.345 1.734-.936 0 1.882-.729 2.483-1.803 2.483-.552 0-1.074-.256-1.419-.818l-.562.325z" class="J"/><g class="D"><rect x="182.783" y="303.836" width="158.761" height="24.088" rx="1.642" class="B L"/><path d="M324.938 314.967l2.92 2.92 2.919-2.92" class="G I K"/></g><rect x="192.09" y="312.047" width="123.724" height="7.664" rx="3.832" class="M"/><path d="M356.684 351.798c0-.955-.622-1.559-1.638-1.559h-2.277v6.035h2.47a1.68 1.68 0 0 0 1.769-1.743c0-.596-.411-1.332-1.086-1.472.57-.21.762-.753.762-1.261zm-3.092.946v-1.752h1.367c.552 0 .893.307.893.832 0 .491-.271.92-.806.92h-1.454zm1.586.718c.604 0 .99.57.99 1.06 0 .517-.368.99-.964.99h-1.612v-2.05h1.586zm2.697-.192c0 1.716 1.331 3.092 3.048 3.092 1.726 0 3.066-1.376 3.066-3.092 0-1.709-1.34-3.101-3.066-3.101-1.717 0-3.048 1.392-3.048 3.101zm.815 0c0-1.288.972-2.313 2.233-2.313 1.27 0 2.243 1.025 2.243 2.313s-.973 2.303-2.243 2.303c-1.261 0-2.233-1.016-2.233-2.303zm6.156 0c0 1.716 1.332 3.092 3.049 3.092 1.725 0 3.065-1.376 3.065-3.092 0-1.709-1.34-3.101-3.065-3.101-1.717 0-3.049 1.392-3.049 3.101zm.815 0c0-1.288.972-2.313 2.234-2.313 1.27 0 2.242 1.025 2.242 2.313s-.972 2.303-2.242 2.303c-1.262 0-2.234-1.016-2.234-2.303zm8.049-.018l2.321-3.013h-1.007l-1.997 2.61v-2.61h-.815v6.035h.815v-2.575l2.391 2.575h1.095l-2.803-3.022zm3.566-3.013v6.035h.815v-6.035h-.815zm6.808 6.035v-6.035h-.815v4.511l-2.724-4.511h-.806v6.035h.815v-4.546l2.75 4.546h.78zm6.338-5.308c-.525-.491-1.235-.797-2.041-.797-1.717 0-3.048 1.392-3.048 3.101 0 1.716 1.331 3.092 3.048 3.092 1.726 0 2.856-.99 2.856-3.119h-2.646v.71h1.717c-.043 1.007-.849 1.629-1.927 1.629-1.261 0-2.233-1.025-2.233-2.312 0-1.279.972-2.322 2.233-2.322.561 0 1.069.219 1.454.561l.587-.543zm3.623-.727v.771h1.831v5.264h.823v-5.264h1.831v-.771h-4.485zm5.557 0v6.035h.814v-6.035h-.814zm1.885 0v.771h1.831v5.264h.823v-5.264h1.831v-.771h-4.485zm5.557 0v6.035h3.276v-.762h-2.462v-5.273h-.814zm4.336 0v6.035h3.662v-.762h-2.847v-1.822h2.409v-.762h-2.409v-1.927h2.759v-.762h-3.574z" class="C"/><rect x="352.493" y="362.96" width="127.009" height="24.088" rx="1.642" class="B D L"/><rect x="356.325" y="371.172" width="120.439" height="7.664" rx="3.832" class="M"/><g class="D"><rect x="353.588" y="303.836" width="123.724" height="24.088" rx="1.642" class="B L"/><path d="M463.991 314.967l2.919 2.92 2.92-2.92" class="G I K"/></g><rect x="393.552" y="313.143" width="63.504" height="7.664" rx="3.832" class="M"/><path d="M362.726 311.163v6.789h.916v-2.907h2.415v-.857h-2.415v-2.168h3.045v-.857h-3.961zm5.55 5.114c0-1.222.375-2.168 1.261-2.168.188 0 .434.039.68.158l.138-.838c-.128-.089-.473-.177-.798-.177-.601 0-1.044.315-1.281 1.133v-1.035h-.897v4.602h.897v-1.675zm4.975 1.774c1.31 0 2.414-.956 2.414-2.415s-1.104-2.384-2.414-2.384-2.405.926-2.405 2.384 1.094 2.415 2.405 2.415zm0-.867c-.838 0-1.518-.602-1.518-1.548 0-.926.68-1.507 1.518-1.507.818 0 1.517.581 1.517 1.507 0 .946-.699 1.548-1.517 1.548zm8.899-3.055c.67 0 1.054.463 1.054 1.222v2.601h.897v-2.66c0-1.301-.621-2.04-1.774-2.04-.443 0-1.172.128-1.596.946-.217-.503-.621-.808-1.202-.897-.158-.03-.325-.039-.503-.03-.374.03-1.035.257-1.271.769v-.69h-.897v4.602h.897v-2.483c0-.966.64-1.34 1.281-1.34.601 0 .995.453.995 1.212v2.611h.897v-2.483c0-.769.463-1.34 1.222-1.34z" class="J"/><path d="M182.665 353.27c0 1.716 1.331 3.092 3.048 3.092 1.725 0 3.066-1.376 3.066-3.092 0-1.709-1.341-3.101-3.066-3.101-1.717 0-3.048 1.392-3.048 3.101zm.814 0c0-1.288.973-2.313 2.234-2.313 1.27 0 2.242 1.025 2.242 2.313s-.972 2.303-2.242 2.303c-1.261 0-2.234-1.016-2.234-2.303zm9.083.718c1.13-.097 1.576-.964 1.576-1.857 0-.946-.516-1.892-1.786-1.892h-2.322v6.035h.824v-2.26h.771l1.559 2.26h.989l-1.611-2.286zm-.237-2.987c.701 0 .973.578.973 1.13 0 .56-.272 1.121-1.008 1.121h-1.436v-2.251h1.471zm7.823-.035a2.96 2.96 0 0 0-2.04-.797c-1.717 0-3.049 1.392-3.049 3.101 0 1.716 1.332 3.092 3.049 3.092 1.725 0 2.855-.99 2.855-3.119h-2.645v.71h1.717c-.044 1.007-.85 1.629-1.927 1.629-1.262 0-2.234-1.025-2.234-2.312 0-1.279.972-2.322 2.234-2.322.56 0 1.068.219 1.454.561l.586-.543zm2.865 3.039l.999-2.68.998 2.68h-1.997zm2.278.736l.586 1.533h.859l-2.286-6.035h-.876l-2.295 6.035h.867l.587-1.533h2.558zm6.705 1.533v-6.035h-.815v4.511l-2.724-4.511h-.806v6.035h.815v-4.546l2.75 4.546h.78zm1.643-6.035v6.035h.815v-6.035h-.815zm2.008 5.325v.71h4.222v-.771h-3.206l3.206-4.555v-.709h-4.099v.771h3.066l-3.189 4.554zm6.484-1.559l.999-2.68.998 2.68h-1.997zm2.278.736l.586 1.533h.859l-2.286-6.035h-.876l-2.295 6.035h.867l.587-1.533h2.558zm1.338-4.502v.771h1.83v5.264h.824v-5.264h1.83v-.771h-4.484zm5.556 0v6.035h.815v-6.035h-.815zm2.069 3.031c0 1.716 1.332 3.092 3.049 3.092 1.725 0 3.065-1.376 3.065-3.092 0-1.709-1.34-3.101-3.065-3.101-1.717 0-3.049 1.392-3.049 3.101zm.815 0c0-1.288.972-2.313 2.234-2.313 1.27 0 2.242 1.025 2.242 2.313s-.972 2.303-2.242 2.303c-1.262 0-2.234-1.016-2.234-2.303zm10.896 3.004v-6.035h-.815v4.511l-2.724-4.511h-.806v6.035h.815v-4.546l2.75 4.546h.78z" class="C"/><rect x="182.783" y="362.96" width="158.761" height="24.088" rx="1.642" class="B D L"/><rect x="192.09" y="371.172" width="95.257" height="7.664" rx="3.832" class="M"/><g filter="url(#B)" class="B"><circle cx="62.344" cy="303.836" r="44.344"/></g><path d="M62.579 314.921H49.225c-1.225 0-2.4-.486-3.266-1.353a4.62 4.62 0 0 1-1.353-3.266v-18.476a4.62 4.62 0 0 1 4.619-4.619h18.477a4.62 4.62 0 0 1 4.619 4.619v13.355" fill="#d9e7ff"/><g class="G I K"><g stroke-width="1.552"><path d="M67.529 321.296H50.703c-1.544 0-3.024-.614-4.116-1.705a5.82 5.82 0 0 1-1.705-4.116v-23.28a5.82 5.82 0 0 1 5.82-5.82h23.28a5.82 5.82 0 0 1 5.82 5.82v16.828"/><path d="M79.804 296.076h-34.92m28.13 9.7a8.73 8.73 0 0 1 6.174 14.903 8.72 8.72 0 0 1-4.47 2.389c-1.694.336-3.449.164-5.044-.496a8.73 8.73 0 0 1-5.389-8.066 8.73 8.73 0 0 1 8.73-8.73"/></g><path d="M75.384 314.408c-.026 0-.05.01-.068.028s-.028.043-.028.069.01.05.028.068.043.028.068.028.05-.01.068-.028.028-.043.028-.068-.01-.05-.028-.069-.043-.028-.068-.028m-4.743 0c-.013 0-.025.003-.037.008s-.022.012-.031.021a.09.09 0 0 0-.02.031c-.005.012-.007.024-.007.037 0 .025.01.05.028.068s.043.028.068.028c.013 0 .025-.003.037-.007s.022-.012.031-.021.016-.02.021-.032.007-.024.007-.036-.002-.026-.007-.037-.012-.023-.021-.032-.02-.016-.031-.02-.024-.008-.037-.008m-4.906-11.64c-.019 0-.037.006-.052.016s-.028.025-.035.042-.009.037-.005.055.013.035.026.048.03.022.048.026.037.002.055-.005.032-.019.042-.035.016-.034.016-.052c0-.026-.01-.05-.028-.067s-.042-.028-.067-.028m-6.79 0a.11.11 0 0 0-.036.007c-.011.004-.022.012-.03.021a.09.09 0 0 0-.02.031c-.005.011-.007.023-.007.036s.006.037.016.052.025.028.043.035.036.009.055.005.035-.013.048-.026.022-.031.025-.049.001-.038-.006-.055-.02-.032-.036-.042-.034-.015-.053-.015m-6.789 0c-.013 0-.025.002-.037.007s-.022.012-.031.021-.016.02-.02.031-.007.025-.006.037c0 .019.006.038.016.053s.025.028.043.035.037.009.055.005.035-.013.048-.026.022-.031.025-.049.001-.038-.006-.055-.02-.032-.036-.042-.034-.015-.053-.015m6.792 5.818a.09.09 0 0 0-.036.008c-.011.005-.022.011-.03.02a.09.09 0 0 0-.026.067.1.1 0 0 0 .016.053c.01.016.025.027.043.034s.036.009.055.005.035-.013.048-.026.022-.03.025-.049.001-.037-.006-.055a.1.1 0 0 0-.036-.042c-.016-.01-.034-.015-.053-.015m-6.79 0c-.013 0-.025.002-.037.007s-.022.012-.031.021-.016.02-.02.032-.007.024-.006.037a.09.09 0 0 0 .016.052c.011.016.025.028.043.035s.037.009.055.005.035-.013.048-.026.022-.031.025-.049.001-.038-.006-.055-.02-.032-.036-.042-.034-.015-.053-.015m6.792 5.821c-.012 0-.025.002-.036.007s-.022.012-.03.02a.11.11 0 0 0-.02.031c-.005.011-.007.024-.007.036a.1.1 0 0 0 .016.053c.01.016.025.027.043.035s.036.008.055.005.035-.013.048-.027.022-.03.025-.049.001-.037-.006-.054-.02-.032-.036-.042-.034-.016-.053-.015m-6.789 0a.09.09 0 0 0-.036.006c-.012.005-.022.012-.031.021a.09.09 0 0 0-.027.067.1.1 0 0 0 .016.053c.01.016.025.027.043.035s.036.008.055.005.035-.013.048-.027.022-.03.025-.049.001-.037-.006-.054-.02-.032-.036-.042-.034-.016-.053-.015" stroke-width="2.079"/></g><path d="M30.296 360.675h-1.41v6.505l-3.898-6.505h-1.357v9.166h1.41v-6.559l3.938 6.559h1.317v-9.166zm7.914 6.04c0-1.969-1.357-3.22-3.113-3.22s-3.193 1.251-3.193 3.22 1.437 3.259 3.193 3.259c1.157 0 2.341-.492 2.874-1.597l-1.117-.492c-.319.572-.998.892-1.69.892-1.011 0-1.756-.599-1.902-1.557h4.935c.013-.146.013-.359.013-.505zm-4.949-.493c.146-.957.878-1.529 1.836-1.529.944 0 1.623.558 1.769 1.529h-3.605zm15.51-2.594h-1.463l-1.45 4.191-1.437-4.191h-1.277l-1.437 4.191-1.437-4.191h-1.463l2.341 6.213h1.118l1.517-4.403 1.583 4.403h1.131l2.275-6.213zm10.546-.532c0-1.503-.984-2.421-2.541-2.421h-3.512v9.166h3.791c1.743 0 2.754-1.237 2.754-2.687 0-.878-.612-1.943-1.676-2.195.891-.36 1.184-1.144 1.184-1.863zm-4.629 1.344v-2.475h1.942c.758 0 1.224.439 1.224 1.184 0 .692-.386 1.291-1.131 1.291h-2.035zm2.262 1.21c.878 0 1.383.812 1.383 1.49 0 .705-.492 1.41-1.344 1.41h-2.302v-2.9h2.262zm7.276 2.994c-1.024 0-1.876-.759-1.876-1.929a1.82 1.82 0 0 1 1.876-1.876c1.038 0 1.889.745 1.889 1.876 0 1.17-.851 1.929-1.889 1.929zm0 1.33c1.769 0 3.259-1.291 3.259-3.259s-1.49-3.22-3.259-3.22c-1.756 0-3.233 1.251-3.233 3.22s1.477 3.259 3.233 3.259zm7.613-1.33c-1.024 0-1.876-.759-1.876-1.929a1.82 1.82 0 0 1 1.876-1.876c1.038 0 1.889.745 1.889 1.876 0 1.17-.851 1.929-1.889 1.929zm0 1.33c1.769 0 3.259-1.291 3.259-3.259s-1.49-3.22-3.259-3.22c-1.756 0-3.233 1.251-3.233 3.22s1.477 3.259 3.233 3.259zm8.784-.133h1.756l-3.246-3.512 2.647-2.701h-1.836l-1.969 2.049v-5.428h-1.357v9.592h1.357v-2.887l2.647 2.887zm4.082-6.213h-1.357v6.213h1.357v-6.213zm-1.596-2.514c0 .492.426.865.918.865.519 0 .905-.373.905-.865s-.386-.865-.905-.865c-.492 0-.918.373-.918.865zm4.883 5.388c0-1.224.785-1.663 1.596-1.663.798 0 1.304.545 1.304 1.543v3.459h1.37v-3.619c0-1.769-.865-2.727-2.368-2.727-.678 0-1.543.359-1.902 1.064v-.931h-1.37v6.213h1.37v-3.339zm10.955.239c0 1.224-.984 1.916-1.916 1.916-1.038 0-1.889-.745-1.889-1.916 0-1.131.851-1.915 1.889-1.915 1.024 0 1.916.678 1.916 1.915zm-3.791 3.885c-.253.106-.878.465-1.131.572a3.18 3.18 0 0 0 2.873 1.742c2.089 0 3.419-1.157 3.419-4.017v-5.295h-1.344v.918c-.386-.678-1.251-1.051-2.102-1.051-1.676 0-3.139 1.291-3.139 3.26s1.463 3.219 3.139 3.219c.838 0 1.756-.373 2.102-1.078v.32c0 1.742-.812 2.447-2.075 2.447-.678 0-1.41-.385-1.743-1.037z" class="C"/><path d="M326.743 174.773V22" stroke="#8e95a3" stroke-width="2.557" stroke-dasharray="5.12 7.13" class="G P"/><g filter="url(#C)" class="B"><rect x="213.988" y="122.63" width="227.74" height="36.132" rx="18.066"/></g><rect x="312.529" y="129.199" width="112.775" height="20.803" rx="3.285" class="H N"/><path d="M259.584 143.296c-1.197 0-2.224-.859-2.224-2.21v-6.363h-1.323v6.363c0 2.111 1.618 3.477 3.547 3.477 1.9 0 3.547-1.366 3.547-3.477v-6.363h-1.323v6.363c0 1.351-1.027 2.21-2.224 2.21zm8.094-1.563c.493.113.887.338.873.831s-.394.816-1 .858c-.408.029-.746-.042-1.041-.225-.324-.155-.493-.464-.535-.746h-1.169c.042 1.351 1.267 2.112 2.45 2.112 1.365 0 2.548-.732 2.548-1.971 0-.746-.352-1.577-1.704-1.915l-.971-.239c-.338-.099-.648-.239-.774-.507-.071-.141-.071-.309-.014-.521.098-.352.492-.591.985-.591.507 0 .957.253 1.028.746h1.224c-.112-1.337-1.168-1.858-2.28-1.858-1.183 0-2.168.718-2.281 1.675-.112 1.225.564 1.816 1.76 2.14l.901.211zm4.638-1.112c.155-1.112.999-1.76 2.083-1.76 1.07 0 1.844.648 1.999 1.76h-4.082zm5.349.493c0-2.084-1.393-3.407-3.266-3.407s-3.364 1.323-3.364 3.407 1.492 3.449 3.364 3.449c1.281 0 2.464-.578 3.027-1.746l-1.098-.422c-.38.661-1.098 1.013-1.886 1.013-1.127 0-1.971-.675-2.126-1.788h5.335c.014-.154.014-.351.014-.506zm2.91.915c0-1.746.534-3.097 1.801-3.097.268 0 .62.056.972.225l.197-1.197c-.183-.126-.676-.253-1.14-.253-.859 0-1.493.45-1.83 1.619v-1.478h-1.282v6.574h1.282v-2.393zm8.853-4.181h-1.267v6.574h1.267v-6.574zm-1.521-2.422c0 .493.394.831.887.831s.887-.338.887-.831-.394-.83-.887-.83-.887.338-.887.83zm6.056 6.307c.493.113.887.338.873.831s-.394.816-1 .858c-.408.029-.746-.042-1.041-.225-.324-.155-.493-.464-.535-.746h-1.169c.043 1.351 1.267 2.112 2.45 2.112 1.365 0 2.548-.732 2.548-1.971 0-.746-.352-1.577-1.704-1.915l-.971-.239c-.338-.099-.648-.239-.774-.507-.071-.141-.071-.309-.014-.521.098-.352.492-.591.985-.591.507 0 .957.253 1.028.746h1.224c-.112-1.337-1.168-1.858-2.28-1.858-1.183 0-2.168.718-2.281 1.675-.112 1.225.564 1.816 1.76 2.14l.901.211zm12.659 2.689h1.267v-6.574h-1.267v.985c-.451-.746-1.394-1.126-2.309-1.126-1.802 0-3.336 1.323-3.336 3.421 0 2.083 1.534 3.435 3.336 3.435.915 0 1.872-.423 2.309-1.155v1.014zm-.014-3.308c0 1.393-1.014 2.196-2.182 2.196-1.183 0-2.14-.901-2.14-2.196s.957-2.154 2.14-2.154c1.069 0 2.182.746 2.182 2.154zm12.512-3.266v-2.478h-1.281v2.478h-1.183v1.084h1.183v5.49h1.281v-5.49h1.394v-1.084h-1.394zm4.126 4.181c0-1.746.535-3.097 1.802-3.097.268 0 .62.056.972.225l.197-1.197c-.183-.126-.676-.253-1.141-.253-.858 0-1.492.45-1.83 1.619v-1.478h-1.281v6.574h1.281v-2.393zm8.764-.634c0 1.408-.929 1.915-1.858 1.915-.901 0-1.436-.634-1.436-1.746v-3.716h-1.281v3.801c-.014 1.858.887 2.914 2.534 2.914.718 0 1.633-.338 2.041-1.127v.986h1.281v-6.574h-1.281v3.547zm5.807.338c.493.113.887.338.873.831s-.394.816-.999.858c-.409.029-.747-.042-1.042-.225-.324-.155-.493-.464-.535-.746h-1.169c.043 1.351 1.267 2.112 2.45 2.112 1.365 0 2.548-.732 2.548-1.971 0-.746-.352-1.577-1.703-1.915l-.972-.239c-.338-.099-.647-.239-.774-.507-.07-.141-.07-.309-.014-.521.098-.352.493-.591.985-.591.507 0 .958.253 1.028.746h1.225c-.113-1.337-1.169-1.858-2.281-1.858-1.182 0-2.168.718-2.28 1.675-.113 1.225.563 1.816 1.759 2.14l.901.211zm5.567-3.885v-2.478h-1.281v2.478h-1.182v1.084h1.182v5.49h1.281v-5.49h1.394v-1.084h-1.394zm3.594 2.773c.155-1.112.999-1.76 2.083-1.76 1.07 0 1.845.648 1.999 1.76h-4.082zm5.349.493c0-2.084-1.393-3.407-3.266-3.407s-3.364 1.323-3.364 3.407 1.492 3.449 3.364 3.449c1.281 0 2.464-.578 3.027-1.746l-1.098-.422c-.38.661-1.098 1.013-1.886 1.013-1.127 0-1.971-.675-2.126-1.788h5.335c.014-.154.014-.351.014-.506zm6.823 3.308h1.281v-10.15h-1.281v4.561c-.436-.746-1.351-1.126-2.323-1.126-1.802 0-3.308 1.323-3.308 3.421 0 2.083 1.521 3.435 3.322 3.435.915 0 1.873-.423 2.309-1.155v1.014zm-.014-3.308c0 1.393-1.014 2.196-2.182 2.196-1.182 0-2.126-.901-2.126-2.196s.944-2.154 2.126-2.154c1.07 0 2.182.746 2.182 2.154zm14.656-2.154c.957 0 1.506.662 1.506 1.745v3.717h1.281v-3.801c0-1.858-.887-2.914-2.534-2.914-.634 0-1.675.183-2.281 1.351-.309-.718-.887-1.154-1.717-1.281-.225-.042-.465-.056-.718-.042-.535.042-1.478.366-1.816 1.098v-.985h-1.281v6.574h1.281v-3.548c0-1.379.915-1.914 1.83-1.914.859 0 1.422.647 1.422 1.731v3.731h1.281v-3.548c0-1.098.662-1.914 1.746-1.914zm5.685 1.661c.155-1.112.999-1.76 2.083-1.76 1.07 0 1.844.648 1.999 1.76h-4.082zm5.349.493c0-2.084-1.394-3.407-3.266-3.407s-3.364 1.323-3.364 3.407 1.492 3.449 3.364 3.449c1.281 0 2.464-.578 3.027-1.746l-1.098-.422c-.38.661-1.098 1.013-1.887 1.013-1.126 0-1.97-.675-2.125-1.788h5.335c.014-.154.014-.351.014-.506zm9.188-2.154c.957 0 1.506.662 1.506 1.745v3.717h1.281v-3.801c0-1.858-.887-2.914-2.534-2.914-.633 0-1.675.183-2.28 1.351-.31-.718-.887-1.154-1.718-1.281-.225-.042-.464-.056-.718-.042-.535.042-1.478.366-1.816 1.098v-.985h-1.281v6.574h1.281v-3.548c0-1.379.915-1.914 1.83-1.914.859 0 1.422.647 1.422 1.731v3.731h1.281v-3.548c0-1.098.662-1.914 1.746-1.914zm6.122 4.448c.436.732 1.379 1.155 2.294 1.155 1.802 0 3.336-1.352 3.336-3.435 0-2.098-1.506-3.421-3.322-3.421-.957 0-1.872.38-2.308 1.126v-4.561h-1.281v10.15h1.281v-1.014zm.014-2.294c0-1.408 1.112-2.154 2.182-2.154 1.182 0 2.125.859 2.125 2.154s-.943 2.196-2.125 2.196c-1.169 0-2.182-.803-2.182-2.196zm8.169-.493c.155-1.112.999-1.76 2.083-1.76 1.07 0 1.844.648 1.999 1.76h-4.082zm5.349.493c0-2.084-1.393-3.407-3.266-3.407s-3.364 1.323-3.364 3.407 1.492 3.449 3.364 3.449c1.281 0 2.464-.578 3.027-1.746l-1.098-.422c-.38.661-1.098 1.013-1.887 1.013-1.126 0-1.97-.675-2.125-1.788h5.335c.014-.154.014-.351.014-.506zm2.909.915c0-1.746.535-3.097 1.802-3.097.268 0 .62.056.972.225l.197-1.197c-.183-.126-.676-.253-1.141-.253-.858 0-1.492.45-1.83 1.619v-1.478h-1.281v6.574h1.281v-2.393z" class="C"/><g class="H"><circle cx="232.288" cy="140.461" r="14.077" class="O"/><path d="M232.288 132.249c-4.535 0-8.212 3.677-8.212 8.212s3.677 8.212 8.212 8.212 8.212-3.677 8.212-8.212-3.677-8.212-8.212-8.212h0zm3.531 6.249l-3.753 4.927a.82.82 0 0 1-1.297.008l-2.004-2.553c-.279-.359-.214-.875.144-1.154a.82.82 0 0 1 1.154.144l1.338 1.708 3.104-4.106c.277-.363.795-.433 1.158-.156s.433.795.156 1.158v.024z"/></g><g filter="url(#D)" class="B"><rect x="186.615" y="71.169" width="282.485" height="37.227" rx="18.613"/></g><path d="M235.681 86.55c0-1.534-1-2.506-2.633-2.506h-3.66v9.699h3.97c1.802 0 2.844-1.295 2.844-2.801 0-.957-.662-2.14-1.746-2.365.915-.338 1.225-1.211 1.225-2.027zm-4.969 1.52v-2.815h2.196c.887 0 1.436.493 1.436 1.337 0 .788-.437 1.478-1.296 1.478h-2.336zm2.548 1.154c.971 0 1.59.915 1.59 1.703 0 .831-.591 1.591-1.548 1.591h-2.59v-3.294h2.548zm7.713 4.66c1.872 0 3.449-1.365 3.449-3.449s-1.577-3.407-3.449-3.407-3.435 1.323-3.435 3.407 1.563 3.449 3.435 3.449zm0-1.239c-1.197 0-2.168-.859-2.168-2.21 0-1.323.971-2.154 2.168-2.154 1.168 0 2.168.831 2.168 2.154 0 1.351-1 2.21-2.168 2.21zm8.152 1.239c1.873 0 3.449-1.365 3.449-3.449s-1.576-3.407-3.449-3.407-3.435 1.323-3.435 3.407 1.563 3.449 3.435 3.449zm0-1.239c-1.196 0-2.168-.859-2.168-2.21 0-1.323.972-2.154 2.168-2.154 1.169 0 2.168.831 2.168 2.154 0 1.351-.999 2.21-2.168 2.21zm6.421-2.112l2.998 3.21h1.69l-3.491-3.731 2.815-2.844h-1.746l-2.266 2.295v-5.87h-1.267v10.15h1.267v-3.21zm7.066-3.365h-1.267v6.574h1.267V87.17zm-1.52-2.421c0 .493.394.831.887.831s.886-.338.886-.831-.394-.831-.886-.831-.887.338-.887.831zm4.944 5.448c0-1.394.929-1.915 1.858-1.915.901 0 1.45.633 1.45 1.746v3.717h1.281v-3.801c0-1.858-.887-2.914-2.534-2.914-.718 0-1.675.338-2.055 1.126v-.986h-1.282v6.574h1.282v-3.547zm7.636 4.491c-.169.07-.915.479-1.07.563.634 1.168 1.746 1.774 2.971 1.774 2.182 0 3.589-1.183 3.589-4.279V87.17h-1.267v1.028c-.45-.746-1.393-1.168-2.308-1.168-1.802 0-3.337 1.365-3.337 3.449s1.535 3.407 3.337 3.407c.929 0 1.9-.422 2.308-1.211 0 .056.014.099.014.155 0 2.182-.915 2.984-2.336 2.984-.732 0-1.507-.394-1.901-1.126zm4.209-4.223c0 1.408-1.112 2.168-2.182 2.168-1.182 0-2.139-.816-2.139-2.168 0-1.281.957-2.182 2.139-2.182 1.169 0 2.182.774 2.182 2.182zm12.263 3.28h1.281v-10.15h-1.281v4.561c-.436-.746-1.351-1.126-2.323-1.126-1.802 0-3.308 1.323-3.308 3.421 0 2.083 1.52 3.435 3.322 3.435.915 0 1.873-.422 2.309-1.154v1.014zm-.014-3.308c0 1.394-1.014 2.196-2.182 2.196-1.183 0-2.126-.901-2.126-2.196s.943-2.154 2.126-2.154c1.07 0 2.182.746 2.182 2.154zm7.93.281c0 1.408-.929 1.915-1.859 1.915-.9 0-1.435-.633-1.435-1.746V87.17h-1.281v3.801c-.015 1.858.886 2.914 2.533 2.914.718 0 1.633-.338 2.042-1.126v.986h1.281V87.17h-1.281v3.547zm4.695.633c0-1.746.535-3.097 1.802-3.097a2.29 2.29 0 0 1 .971.225l.197-1.197c-.183-.127-.676-.253-1.14-.253-.859 0-1.492.45-1.83 1.619V87.17h-1.281v6.574h1.281v-2.393zm9.316 2.393h1.267V87.17h-1.267v.986c-.45-.746-1.393-1.126-2.308-1.126-1.802 0-3.337 1.323-3.337 3.421 0 2.083 1.535 3.435 3.337 3.435.915 0 1.872-.422 2.308-1.154v1.014zm-.014-3.308c0 1.394-1.013 2.196-2.182 2.196-1.182 0-2.139-.901-2.139-2.196s.957-2.154 2.139-2.154c1.07 0 2.182.746 2.182 2.154zm5.199-3.266v-2.478h-1.281v2.478h-1.182v1.084h1.182v5.49h1.281v-5.49h1.394V87.17h-1.394zm4.112 0h-1.267v6.574h1.267V87.17zm-1.52-2.421c0 .493.394.831.887.831s.887-.338.887-.831-.394-.831-.887-.831-.887.338-.887.831zm6.661 9.136c1.873 0 3.449-1.365 3.449-3.449s-1.576-3.407-3.449-3.407-3.435 1.323-3.435 3.407 1.563 3.449 3.435 3.449zm0-1.239c-1.196 0-2.168-.859-2.168-2.21 0-1.323.972-2.154 2.168-2.154 1.169 0 2.168.831 2.168 2.154 0 1.351-.999 2.21-2.168 2.21zm6.435-2.449c0-1.394.929-1.915 1.858-1.915.901 0 1.45.633 1.45 1.746v3.717h1.281v-3.801c0-1.858-.887-2.914-2.534-2.914-.718 0-1.675.338-2.055 1.126v-.986h-1.281v6.574h1.281v-3.547zm11.575-3.027h-1.267v6.574h1.267V87.17zm-1.52-2.421c0 .493.394.831.887.831s.886-.338.886-.831-.394-.831-.886-.831-.887.338-.887.831zm6.056 6.307c.492.113.886.338.872.831s-.394.816-.999.859c-.408.028-.746-.042-1.042-.225-.324-.155-.493-.465-.535-.746h-1.168c.042 1.351 1.267 2.112 2.449 2.112 1.366 0 2.548-.732 2.548-1.971 0-.746-.352-1.577-1.703-1.915l-.971-.239c-.338-.099-.648-.239-.775-.507-.07-.141-.07-.31-.014-.521.099-.352.493-.591.986-.591.506 0 .957.253 1.027.746h1.225c-.113-1.337-1.168-1.858-2.28-1.858-1.183 0-2.168.718-2.281 1.675-.113 1.225.563 1.816 1.76 2.14l.901.211zm15.597-.338c0 1.408-.929 1.915-1.858 1.915-.901 0-1.436-.633-1.436-1.746V87.17h-1.281v3.801c-.014 1.858.887 2.914 2.534 2.914.718 0 1.633-.338 2.041-1.126v.986h1.281V87.17h-1.281v3.547zm4.695-.521c0-1.394.929-1.915 1.858-1.915.901 0 1.45.633 1.45 1.746v3.717h1.281v-3.801c0-1.858-.887-2.914-2.534-2.914-.717 0-1.675.338-2.055 1.126v-.986h-1.281v6.574h1.281v-3.547zm11.846 3.547h1.281v-10.15h-1.281v4.561c-.436-.746-1.352-1.126-2.323-1.126-1.802 0-3.308 1.323-3.308 3.421 0 2.083 1.52 3.435 3.322 3.435.915 0 1.873-.422 2.309-1.154v1.014zm-.014-3.308c0 1.394-1.014 2.196-2.182 2.196-1.183 0-2.126-.901-2.126-2.196s.943-2.154 2.126-2.154c1.07 0 2.182.746 2.182 2.154zm4.284-.493c.154-1.112.999-1.76 2.083-1.76 1.07 0 1.844.648 1.999 1.76h-4.082zm5.349.493c0-2.084-1.394-3.407-3.266-3.407s-3.364 1.323-3.364 3.407 1.492 3.449 3.364 3.449c1.281 0 2.464-.577 3.027-1.746l-1.098-.422c-.38.662-1.098 1.014-1.887 1.014-1.126 0-1.971-.676-2.125-1.788h5.335c.014-.155.014-.352.014-.507zm2.909.915c0-1.746.535-3.097 1.802-3.097a2.29 2.29 0 0 1 .972.225l.197-1.197c-.183-.127-.676-.253-1.141-.253-.858 0-1.492.45-1.83 1.619V87.17h-1.281v6.574h1.281v-2.393zm8.6-4.828c.38-.563.887-.887 1.605-.831.45.042.858.239 1.07.535s.211.619.154.943c-.112.605-.605 1.07-1.267 1.056h-1.041v1.225h1.041c.958 0 1.816.76 1.774 1.647s-.999 1.577-1.999 1.506h.014c-.746-.056-1.436-.633-1.717-1.267l-1.112.605c.492 1.07 1.506 1.816 2.731 1.915 1.717.113 3.209-1.014 3.364-2.59.071-.971-.507-2.14-1.45-2.478a2.19 2.19 0 0 0 1-1.253c.056-.197.084-.38.084-.563.042-1.281-1.027-2.478-2.534-2.548-1.14-.07-2.154.465-2.66 1.351l.943.746zm11.458 3.674c0-1.408 1.098-1.915 1.999-1.915s1.548.662 1.548 1.746v3.717h1.281v-3.801c.014-1.858-1.013-2.914-2.66-2.914-.704 0-1.788.338-2.168 1.126v-4.561h-1.281v10.15h1.281v-3.547zm9.883 3.688c1.872 0 3.449-1.365 3.449-3.449s-1.577-3.407-3.449-3.407-3.435 1.323-3.435 3.407 1.563 3.449 3.435 3.449zm0-1.239c-1.196 0-2.168-.859-2.168-2.21 0-1.323.972-2.154 2.168-2.154 1.169 0 2.168.831 2.168 2.154 0 1.351-.999 2.21-2.168 2.21zm9.645-1.929c0 1.408-.93 1.915-1.859 1.915-.901 0-1.436-.633-1.436-1.746V87.17h-1.281v3.801c-.014 1.858.887 2.914 2.534 2.914.718 0 1.633-.338 2.042-1.126v.986h1.281V87.17h-1.281v3.547zm4.695.633c0-1.746.535-3.097 1.802-3.097a2.29 2.29 0 0 1 .971.225l.197-1.197c-.183-.127-.676-.253-1.14-.253-.859 0-1.493.45-1.83 1.619V87.17h-1.281v6.574h1.281v-2.393zm6.611-.296c.492.113.887.338.872.831s-.394.816-.999.859c-.408.028-.746-.042-1.042-.225-.324-.155-.492-.465-.535-.746h-1.168c.042 1.351 1.267 2.112 2.449 2.112 1.366 0 2.548-.732 2.548-1.971 0-.746-.352-1.577-1.703-1.915l-.971-.239c-.338-.099-.648-.239-.775-.507-.07-.141-.07-.31-.014-.521.099-.352.493-.591.986-.591.507 0 .957.253 1.027.746h1.225c-.112-1.337-1.168-1.858-2.28-1.858-1.183 0-2.168.718-2.281 1.675-.113 1.225.563 1.816 1.76 2.14l.901.211z" class="C"/><g class="H"><rect x="355.23" y="78.834" width="96.352" height="20.803" rx="3.285" class="N"/><circle cx="205.541" cy="89.783" r="14.077" class="O"/><path d="M205.541 81.571c-4.535 0-8.211 3.676-8.211 8.212s3.676 8.212 8.211 8.212 8.212-3.677 8.212-8.212-3.676-8.212-8.212-8.212h0zm3.531 6.249l-3.752 4.927a.82.82 0 0 1-1.298.008l-2.004-2.554c-.278-.358-.214-.875.144-1.154s.875-.215 1.154.144l1.338 1.708 3.104-4.106c.277-.363.796-.433 1.158-.156s.433.795.156 1.158v.025z"/></g><g filter="url(#E)" class="B"><rect x="164.717" y="20.803" width="324.091" height="36.132" rx="18.066"/></g><path d="M212.341 39.391c1.816-.155 2.534-1.548 2.534-2.984 0-1.52-.831-3.041-2.872-3.041h-3.731v9.699h1.324v-3.632h1.238l2.506 3.632h1.591l-2.59-3.674zm-.38-4.8c1.126 0 1.562.929 1.562 1.816 0 .901-.436 1.802-1.619 1.802h-2.308v-3.618h2.365zm5.316 4.674c.155-1.112 1-1.76 2.083-1.76 1.07 0 1.845.648 1.999 1.76h-4.082zm5.349.493c0-2.084-1.393-3.407-3.266-3.407s-3.364 1.323-3.364 3.407 1.492 3.449 3.364 3.449c1.282 0 2.464-.577 3.027-1.746l-1.098-.422c-.38.662-1.098 1.014-1.886 1.014-1.126 0-1.971-.676-2.126-1.788h5.335c.014-.155.014-.352.014-.507zm9.188-2.154c.957 0 1.506.662 1.506 1.746v3.716h1.282v-3.801c0-1.858-.887-2.914-2.534-2.914-.634 0-1.676.183-2.281 1.352-.31-.718-.887-1.154-1.717-1.281-.226-.042-.465-.056-.718-.042-.535.042-1.478.366-1.816 1.098v-.985h-1.281v6.574h1.281v-3.547c0-1.38.915-1.914 1.83-1.914.858 0 1.422.648 1.422 1.731v3.73h1.281v-3.547c0-1.098.661-1.914 1.745-1.914zm10.049 5.462h1.267v-6.574h-1.267v.985c-.45-.746-1.393-1.126-2.308-1.126-1.802 0-3.337 1.323-3.337 3.421 0 2.084 1.535 3.435 3.337 3.435.915 0 1.872-.422 2.308-1.154v1.013zm-.014-3.308c0 1.394-1.013 2.196-2.182 2.196-1.182 0-2.139-.901-2.139-2.196s.957-2.154 2.139-2.154c1.07 0 2.182.746 2.182 2.154zm4.692-3.266h-1.267v6.574h1.267v-6.574zm-1.52-2.421c0 .493.394.831.887.831s.887-.338.887-.831-.394-.831-.887-.831-.887.338-.887.831zm4.944 5.448c0-1.394.929-1.914 1.858-1.914.901 0 1.45.633 1.45 1.746v3.716h1.281v-3.801c0-1.858-.887-2.914-2.534-2.914-.718 0-1.675.338-2.055 1.126v-.985h-1.281v6.574h1.281v-3.547zm7.918-3.027h-1.267v6.574h1.267v-6.574zm-1.52-2.421c0 .493.394.831.887.831s.886-.338.886-.831-.394-.831-.886-.831-.887.338-.887.831zm4.943 5.448c0-1.394.93-1.914 1.859-1.914.901 0 1.45.633 1.45 1.746v3.716h1.281v-3.801c0-1.858-.887-2.914-2.534-2.914-.718 0-1.675.338-2.056 1.126v-.985h-1.281v6.574h1.281v-3.547zm7.637 4.491c-.169.07-.915.479-1.07.563.634 1.168 1.746 1.774 2.97 1.774 2.182 0 3.59-1.182 3.59-4.279v-5.575h-1.267v1.028c-.45-.746-1.393-1.169-2.308-1.169-1.802 0-3.337 1.366-3.337 3.449s1.535 3.407 3.337 3.407c.929 0 1.9-.422 2.308-1.211 0 .056.014.098.014.155 0 2.182-.915 2.984-2.337 2.984-.732 0-1.506-.394-1.9-1.126zm4.209-4.223c0 1.408-1.112 2.168-2.182 2.168-1.182 0-2.14-.816-2.14-2.168 0-1.281.958-2.182 2.14-2.182 1.169 0 2.182.774 2.182 2.182zm8.349 2.267c.437.732 1.38 1.154 2.295 1.154 1.802 0 3.336-1.351 3.336-3.435 0-2.097-1.506-3.421-3.322-3.421-.957 0-1.872.38-2.309 1.126v-4.561h-1.281v10.15h1.281v-1.013zm.014-2.295c0-1.408 1.113-2.154 2.182-2.154 1.183 0 2.126.859 2.126 2.154s-.943 2.196-2.126 2.196c-1.168 0-2.182-.802-2.182-2.196zm10.323 3.449c1.873 0 3.449-1.366 3.449-3.449s-1.576-3.407-3.449-3.407-3.434 1.323-3.434 3.407 1.562 3.449 3.434 3.449zm0-1.239c-1.196 0-2.168-.859-2.168-2.21 0-1.323.972-2.154 2.168-2.154 1.169 0 2.168.831 2.168 2.154 0 1.351-.999 2.21-2.168 2.21zm8.153 1.239c1.872 0 3.449-1.366 3.449-3.449s-1.577-3.407-3.449-3.407-3.435 1.323-3.435 3.407 1.562 3.449 3.435 3.449zm0-1.239c-1.197 0-2.168-.859-2.168-2.21 0-1.323.971-2.154 2.168-2.154 1.168 0 2.167.831 2.167 2.154 0 1.351-.999 2.21-2.167 2.21zm6.42-2.112l2.999 3.21h1.689l-3.491-3.73 2.815-2.844h-1.745l-2.267 2.295v-5.87h-1.267v10.15h1.267v-3.21zm7.066-3.364h-1.267v6.574h1.267v-6.574zm-1.52-2.421c0 .493.394.831.887.831s.887-.338.887-.831-.394-.831-.887-.831-.887.338-.887.831zm4.944 5.448c0-1.394.929-1.914 1.858-1.914.901 0 1.45.633 1.45 1.746v3.716h1.281v-3.801c0-1.858-.887-2.914-2.534-2.914-.718 0-1.675.338-2.055 1.126v-.985h-1.281v6.574h1.281v-3.547zm7.636 4.491c-.168.07-.915.479-1.069.563.633 1.168 1.745 1.774 2.97 1.774 2.182 0 3.59-1.182 3.59-4.279v-5.575h-1.267v1.028c-.451-.746-1.394-1.169-2.309-1.169-1.802 0-3.336 1.366-3.336 3.449s1.534 3.407 3.336 3.407c.929 0 1.9-.422 2.309-1.211 0 .056.014.098.014.155 0 2.182-.915 2.984-2.337 2.984a2.18 2.18 0 0 1-1.901-1.126zm4.21-4.223c0 1.408-1.113 2.168-2.182 2.168-1.183 0-2.14-.816-2.14-2.168 0-1.281.957-2.182 2.14-2.182 1.168 0 2.182.774 2.182 2.182zm12.276 3.28h1.267v-6.574h-1.267v.985c-.45-.746-1.393-1.126-2.308-1.126-1.802 0-3.337 1.323-3.337 3.421 0 2.084 1.535 3.435 3.337 3.435.915 0 1.872-.422 2.308-1.154v1.013zm-.014-3.308c0 1.394-1.013 2.196-2.182 2.196-1.182 0-2.139-.901-2.139-2.196s.957-2.154 2.139-2.154c1.07 0 2.182.746 2.182 2.154zm3.425-6.842v10.15h1.281v-10.15h-1.281zm3.423 0v10.15h1.281v-10.15h-1.281zm6.422 10.291c1.872 0 3.449-1.366 3.449-3.449s-1.577-3.407-3.449-3.407-3.435 1.323-3.435 3.407 1.563 3.449 3.435 3.449zm0-1.239c-1.197 0-2.168-.859-2.168-2.21 0-1.323.971-2.154 2.168-2.154 1.168 0 2.168.831 2.168 2.154 0 1.351-1 2.21-2.168 2.21zm12.474 1.098l2.435-6.574h-1.365l-1.647 4.603-1.647-4.603h-1.239l-1.647 4.603-1.647-4.603h-1.366l2.506 6.574h1.042l1.731-4.828 1.788 4.828h1.056zm8.873 0h1.266v-6.574h-1.266v.985c-.451-.746-1.394-1.126-2.309-1.126-1.802 0-3.336 1.323-3.336 3.421 0 2.084 1.534 3.435 3.336 3.435.915 0 1.872-.422 2.309-1.154v1.013zm-.015-3.308c0 1.394-1.013 2.196-2.182 2.196-1.182 0-2.139-.901-2.139-2.196s.957-2.154 2.139-2.154c1.07 0 2.182.746 2.182 2.154zm4.707-.239c0-1.394.929-1.914 1.858-1.914.901 0 1.45.633 1.45 1.746v3.716h1.281v-3.801c0-1.858-.887-2.914-2.534-2.914-.718 0-1.675.338-2.055 1.126v-.985h-1.281v6.574h1.281v-3.547zm6.214.239c0 2.083 1.605 3.449 3.477 3.449 1.014 0 1.929-.394 2.548-1.07l-.985-.816c-.394.408-.957.648-1.563.648-1.182 0-2.21-.901-2.21-2.21 0-1.323 1.028-2.154 2.21-2.154.606 0 1.169.225 1.563.619l.971-.816c-.619-.676-1.52-1.056-2.534-1.056-1.872 0-3.477 1.323-3.477 3.407zm8.32-.493c.155-1.112 1-1.76 2.084-1.76 1.069 0 1.844.648 1.999 1.76h-4.083zm5.349.493c0-2.084-1.393-3.407-3.265-3.407s-3.365 1.323-3.365 3.407 1.492 3.449 3.365 3.449c1.281 0 2.463-.577 3.026-1.746l-1.098-.422c-.38.662-1.098 1.014-1.886 1.014-1.126 0-1.971-.676-2.126-1.788h5.335c.014-.155.014-.352.014-.507zm6.552-3.266h-1.266v6.574h1.266v-6.574zm-1.52-2.421c0 .493.394.831.887.831s.887-.338.887-.831-.394-.831-.887-.831-.887.338-.887.831zm6.056 6.307c.493.113.887.338.873.831s-.394.816-1 .859c-.408.028-.746-.042-1.041-.225-.324-.155-.493-.465-.535-.746h-1.169c.042 1.351 1.267 2.112 2.45 2.112 1.365 0 2.548-.732 2.548-1.971 0-.746-.352-1.577-1.704-1.914l-.971-.239c-.338-.099-.648-.239-.774-.507-.071-.141-.071-.31-.014-.521.098-.352.492-.591.985-.591.507 0 .957.253 1.028.746h1.224c-.112-1.337-1.168-1.858-2.28-1.858-1.183 0-2.168.718-2.281 1.675-.112 1.225.563 1.816 1.76 2.14l.901.211zm10.882 2.126v.563h5.673v-1.267h-3.506l2.492-2.942c.605-.676 1-1.478 1-2.379 0-1.619-1.281-2.717-2.886-2.717-1.422 0-2.661.929-2.886 2.421l1.225.296c.126-.915.816-1.45 1.661-1.45.901 0 1.633.549 1.633 1.45 0 .521-.268 1.014-.676 1.506l-3.73 4.519zm12.586-2.984c0-1.408 1.098-1.914 1.999-1.914s1.549.662 1.549 1.746v3.716h1.281v-3.801c.014-1.858-1.014-2.914-2.661-2.914-.704 0-1.788.338-2.168 1.126v-4.561h-1.281v10.15h1.281v-3.547zm9.884 3.688c1.872 0 3.449-1.366 3.449-3.449s-1.577-3.407-3.449-3.407-3.435 1.323-3.435 3.407 1.562 3.449 3.435 3.449zm0-1.239c-1.197 0-2.168-.859-2.168-2.21 0-1.323.971-2.154 2.168-2.154 1.168 0 2.168.831 2.168 2.154 0 1.351-1 2.21-2.168 2.21zm9.644-1.929c0 1.408-.929 1.914-1.858 1.914-.901 0-1.436-.633-1.436-1.746v-3.716h-1.281v3.801c-.014 1.858.887 2.914 2.534 2.914.718 0 1.633-.338 2.041-1.126v.985h1.281v-6.574h-1.281v3.547zm4.695.633c0-1.746.535-3.097 1.802-3.097.268 0 .619.056.971.225l.197-1.197c-.183-.127-.675-.253-1.14-.253-.859 0-1.492.451-1.83 1.619v-1.478h-1.281v6.574h1.281v-2.393zm6.611-.296c.493.113.887.338.873.831s-.394.816-.999.859c-.409.028-.747-.042-1.042-.225-.324-.155-.493-.465-.535-.746h-1.169c.043 1.351 1.267 2.112 2.45 2.112 1.365 0 2.548-.732 2.548-1.971 0-.746-.352-1.577-1.703-1.914l-.972-.239c-.338-.099-.647-.239-.774-.507-.07-.141-.07-.31-.014-.521.098-.352.493-.591.985-.591.507 0 .958.253 1.028.746h1.225c-.113-1.337-1.169-1.858-2.281-1.858-1.182 0-2.168.718-2.28 1.675-.113 1.225.563 1.816 1.759 2.14l.901.211z" class="C"/><g class="H"><rect x="417.64" y="28.468" width="54.745" height="20.803" rx="3.285" class="N"/><circle cx="184.425" cy="39.104" r="14.077" class="O"/><path d="M184.425 30.892c-4.535 0-8.211 3.677-8.211 8.212s3.676 8.212 8.211 8.212 8.212-3.677 8.212-8.212-3.676-8.212-8.212-8.212h0zm3.531 6.249l-3.752 4.927a.82.82 0 0 1-1.298.008l-2.004-2.554c-.278-.358-.214-.875.144-1.154s.875-.215 1.154.144l1.338 1.708 3.104-4.106c.277-.363.796-.433 1.158-.156s.433.795.156 1.158v.025z"/></g><g filter="url(#F)" class="B"><circle cx="597.751" cy="303.836" r="43.249"/></g><circle cx="597.751" cy="303.836" r="23.787" fill="#00dda8" fill-opacity=".17"/><circle cx="598.292" cy="303.295" r="14.596" class="B"/><path d="M597.751 286.717c-9.454 0-17.119 7.664-17.119 17.119s7.665 17.119 17.119 17.119 17.12-7.664 17.12-17.119-7.665-17.119-17.12-17.119h0zm7.362 13.028l-7.824 10.271a1.71 1.71 0 0 1-2.705.017l-4.177-5.324c-.581-.747-.447-1.824.3-2.405s1.823-.447 2.405.299l2.79 3.561 6.471-8.559c.577-.757 1.658-.902 2.414-.326s.902 1.658.326 2.414v.052z" fill="#00dda8"/><path d="M566.366 366.096c-.558.727-1.428 1.168-2.414 1.168-1.777 0-3.139-1.44-3.139-3.257 0-1.803 1.362-3.269 3.139-3.269.986 0 1.804.454 2.388 1.115l1.064-.83c-.792-.986-2.011-1.609-3.452-1.609-2.53 0-4.515 2.063-4.515 4.593 0 2.543 1.985 4.58 4.515 4.58 1.467 0 2.699-.623 3.478-1.648l-1.064-.843zm5.029 1.194c-.999 0-1.83-.74-1.83-1.882 0-1.102.831-1.829 1.83-1.829 1.012 0 1.842.727 1.842 1.829 0 1.142-.83 1.882-1.842 1.882zm0 1.297c1.725 0 3.178-1.258 3.178-3.179s-1.453-3.139-3.178-3.139c-1.713 0-3.153 1.219-3.153 3.139s1.44 3.179 3.153 3.179zm5.997-3.386c0-1.194.766-1.622 1.557-1.622.779 0 1.272.532 1.272 1.505v3.374h1.336v-3.53c0-1.725-.843-2.659-2.309-2.659-.662 0-1.505.35-1.856 1.038v-.909h-1.336v6.06h1.336v-3.257zm11.1 3.257h1.323v-6.06h-4.554v-.558c0-.778.195-1.453 1.077-1.453H587v-1.284h-.662c-1.661 0-2.426 1.077-2.426 2.737v.558h-1.155v1.103h1.155v4.957h1.349v-4.957h3.231v4.957zm-.234-8.512c0 .48.415.844.895.844.506 0 .883-.364.883-.844s-.377-.843-.883-.843c-.48 0-.895.363-.895.843zm4.744 6.332c0-1.609.48-2.751 1.622-2.751.26 0 .545.039.895.208l.221-1.233c-.195-.143-.649-.233-1.077-.233-.765 0-1.349.428-1.661 1.518v-1.389h-1.336v6.06h1.336v-2.18zm10.749-2.699c.778 0 1.284.558 1.284 1.505v3.374h1.337v-3.491c0-1.725-.831-2.698-2.336-2.698-.545 0-1.479.155-2.037 1.206-.35-.778-.934-1.206-1.907-1.206-.493 0-1.492.207-1.907 1.038v-.909h-1.337v6.06h1.337v-3.257c0-1.194.752-1.622 1.531-1.622.726 0 1.219.545 1.232 1.479v3.4h1.337v-3.257c0-.986.583-1.622 1.466-1.622zm9.147 4.879h1.324v-6.06h-1.324v.857c-.415-.688-1.31-.986-2.037-.986-1.621 0-3.075 1.219-3.075 3.152s1.454 3.166 3.075 3.166c.779 0 1.622-.337 2.037-.999v.87zm-3.736-3.05c0-1.115.856-1.842 1.855-1.842.908 0 1.868.662 1.868 1.842 0 1.194-.882 1.882-1.868 1.882-.999 0-1.855-.766-1.855-1.882zm8.749-5.306h-1.336v2.296h-1.09v1.103h1.09v4.957h1.336v-4.957h1.285v-1.103h-1.285v-2.296zm3.866 2.296h-1.324v6.06h1.324v-6.06zm-1.557-2.452c0 .48.415.844.895.844.506 0 .882-.364.882-.844s-.376-.843-.882-.843c-.48 0-.895.363-.895.843zm6.19 7.344c-.999 0-1.829-.74-1.829-1.882 0-1.102.83-1.829 1.829-1.829 1.012 0 1.842.727 1.842 1.829 0 1.142-.83 1.882-1.842 1.882zm0 1.297c1.726 0 3.179-1.258 3.179-3.179s-1.453-3.139-3.179-3.139c-1.713 0-3.153 1.219-3.153 3.139s1.44 3.179 3.153 3.179zm5.998-3.386c0-1.194.765-1.622 1.557-1.622.778 0 1.271.532 1.271 1.505v3.374h1.336v-3.53c0-1.725-.843-2.659-2.309-2.659-.662 0-1.505.35-1.855 1.038v-.909h-1.337v6.06h1.337v-3.257z" class="C"/><defs><filter id="A" x="118.731" y="136.863" width="425.917" height="363.508" filterUnits="userSpaceOnUse" class="E"><feFlood result="A" class="F"/><feColorMatrix in="SourceAlpha" values="0 0 0 0 0 0 0 0 0 0 0 0 0 0 0 0 0 0 127 0"/><feOffset dx="1.0949" dy="2.18981"/><feGaussianBlur stdDeviation="21.898"/><feColorMatrix values="0 0 0 0 0.0372396 0 0 0 0 0.116661 0 0 0 0 0.270833 0 0 0 0.13 0"/><feBlend in2="A"/><feBlend in="SourceGraphic"/></filter><filter id="B" x=".263" y="246.189" width="124.162" height="124.162" filterUnits="userSpaceOnUse" class="E"><feFlood result="A" class="F"/><feColorMatrix in="SourceAlpha" values="0 0 0 0 0 0 0 0 0 0 0 0 0 0 0 0 0 0 127 0"/><feOffset dy="4.43436"/><feGaussianBlur stdDeviation="8.869"/><feColorMatrix values="0 0 0 0 0 0 0 0 0 0 0 0 0 0 0 0 0 0 0.09 0"/><feBlend in2="A"/><feBlend in="SourceGraphic"/></filter><filter id="C" x="201.32" y="112.777" width="253.076" height="61.468" filterUnits="userSpaceOnUse" class="E"><feFlood result="A" class="F"/><feColorMatrix in="SourceAlpha" values="0 0 0 0 0 0 0 0 0 0 0 0 0 0 0 0 0 0 127 0"/><feOffset dy="2.81547"/><feGaussianBlur stdDeviation="6.334"/><feColorMatrix values="0 0 0 0 0.192639 0 0 0 0 0.275324 0 0 0 0 0.316667 0 0 0 0.25 0"/><feBlend in2="A"/><feBlend in="SourceGraphic"/></filter><filter id="D" x="173.947" y="61.316" width="307.821" height="62.563" filterUnits="userSpaceOnUse" class="E"><feFlood result="A" class="F"/><feColorMatrix in="SourceAlpha" values="0 0 0 0 0 0 0 0 0 0 0 0 0 0 0 0 0 0 127 0"/><feOffset dy="2.81547"/><feGaussianBlur stdDeviation="6.334"/><feColorMatrix values="0 0 0 0 0.192639 0 0 0 0 0.275324 0 0 0 0 0.316667 0 0 0 0.25 0"/><feBlend in2="A"/><feBlend in="SourceGraphic"/></filter><filter id="E" x="152.049" y="10.951" width="349.427" height="61.468" filterUnits="userSpaceOnUse" class="E"><feFlood result="A" class="F"/><feColorMatrix in="SourceAlpha" values="0 0 0 0 0 0 0 0 0 0 0 0 0 0 0 0 0 0 127 0"/><feOffset dy="2.81547"/><feGaussianBlur stdDeviation="6.334"/><feColorMatrix values="0 0 0 0 0.192639 0 0 0 0 0.275324 0 0 0 0 0.316667 0 0 0 0.25 0"/><feBlend in2="A"/><feBlend in="SourceGraphic"/></filter><filter id="F" x="537.203" y="247.612" width="121.096" height="121.096" filterUnits="userSpaceOnUse" class="E"><feFlood result="A" class="F"/><feColorMatrix in="SourceAlpha" values="0 0 0 0 0 0 0 0 0 0 0 0 0 0 0 0 0 0 127 0"/><feOffset dy="4.32487"/><feGaussianBlur stdDeviation="8.65"/><feColorMatrix values="0 0 0 0 0 0 0 0 0 0 0 0 0 0 0 0 0 0 0.09 0"/><feBlend in2="A"/><feBlend in="SourceGraphic"/></filter><linearGradient id="G" x1="329.251" y1="0" x2="329.251" y2="223.137" gradientUnits="userSpaceOnUse"><stop stop-color="#1a61db" stop-opacity="0"/><stop offset=".406" stop-color="#1a61db" stop-opacity=".05"/><stop offset="1" stop-color="#1a61db" stop-opacity=".22"/></linearGradient><clipPath id="H"><path transform="translate(190.995 251.827)" d="M0 0h12.559v14.234H0z" class="B"/></clipPath><clipPath id="I"><path transform="translate(395.742 250.731)" d="M0 0h17.518v17.518H0z" class="B"/></clipPath></defs></svg>