<svg xmlns="http://www.w3.org/2000/svg" xmlns:xlink="http://www.w3.org/1999/xlink" width="62.4" height="28" viewBox="0 0 62.4 28">
  <defs>
    <clipPath id="clip-path">
      <rect id="Rectangle_4083" data-name="Rectangle 4083" width="62.4" height="28" fill="#fff"/>
    </clipPath>
  </defs>
  <g id="ril-lab" clip-path="url(#clip-path)">
    <path id="Path_14865" data-name="Path 14865" d="M7.027,0H0V2.334H7.027Z"/>
    <path id="Path_14866" data-name="Path 14866" d="M2.341,7V0H0V7Z" transform="translate(0.001)"/>
    <path id="Path_14867" data-name="Path 14867" d="M7.027,41.094H0v2.334H7.027Z" transform="translate(0 -15.427)"/>
    <path id="Path_14868" data-name="Path 14868" d="M0,33.623v7H2.343v-7Z" transform="translate(0 -12.623)"/>
    <path id="Path_14869" data-name="Path 14869" d="M0,22.416v4.666H2.343V22.416Z" transform="translate(0 -8.415)"/>
    <path id="Path_14870" data-name="Path 14870" d="M1.183,17.237A1.147,1.147,0,1,0,.032,16.09,1.149,1.149,0,0,0,1.183,17.237Z" transform="translate(-0.012 -5.61)"/>
    <path id="Path_14871" data-name="Path 14871" d="M26.252,43.429h7.027V41.1H26.252Z" transform="translate(-9.855 -15.428)"/>
    <path id="Path_14872" data-name="Path 14872" d="M33.752,33.624v7h2.343v-7Z" transform="translate(-12.671 -12.623)"/>
    <path id="Path_14873" data-name="Path 14873" d="M26.252,2.334h7.027V0H26.252Z" transform="translate(-9.855 0)"/>
    <path id="Path_14874" data-name="Path 14874" d="M36.093,7V0H33.751V7Z" transform="translate(-12.671)"/>
    <path id="Path_14875" data-name="Path 14875" d="M36.093,19.609V14.942H33.751v4.666Z" transform="translate(-12.671 -5.61)"/>
    <path id="Path_14876" data-name="Path 14876" d="M34.936,28.508a1.147,1.147,0,1,0-1.151-1.147A1.149,1.149,0,0,0,34.936,28.508Z" transform="translate(-12.683 -9.842)"/>
    <path id="Path_14877" data-name="Path 14877" d="M47.233,20.939a1.866,1.866,0,0,1-1.361-.478,1.8,1.8,0,0,1-.489-1.355,1.985,1.985,0,0,1,.453-1.394,1.617,1.617,0,0,1,1.251-.493,1.593,1.593,0,0,1,1.189.433,1.641,1.641,0,0,1,.428,1.2v.475H46.379a.933.933,0,0,0,.248.651.873.873,0,0,0,.651.234,2.747,2.747,0,0,0,.616-.067,3.116,3.116,0,0,0,.605-.215v.757a2.277,2.277,0,0,1-.547.191A3.46,3.46,0,0,1,47.233,20.939Zm-.138-3.025a.627.627,0,0,0-.49.2.913.913,0,0,0-.2.56h1.379a.81.81,0,0,0-.19-.56.644.644,0,0,0-.5-.2Z" transform="translate(-17.038 -6.464)"/>
    <path id="Path_14878" data-name="Path 14878" d="M54.986,20.874H54v-2.1a1,1,0,0,0-.138-.583A.5.5,0,0,0,53.423,18a.665.665,0,0,0-.6.274,1.7,1.7,0,0,0-.184.911v1.687H51.66V17.286h.751l.132.459H52.6a1.043,1.043,0,0,1,.453-.393,1.55,1.55,0,0,1,.656-.133,1.268,1.268,0,0,1,.954.339,1.344,1.344,0,0,1,.326.98Z" transform="translate(-19.394 -6.464)"/>
    <path id="Path_14879" data-name="Path 14879" d="M60.433,20.87l-.19-.488h-.026a1.456,1.456,0,0,1-.511.432,1.658,1.658,0,0,1-.685.121,1.109,1.109,0,0,1-.816-.3,1.134,1.134,0,0,1-.3-.841.946.946,0,0,1,.4-.843,2.325,2.325,0,0,1,1.21-.3l.626-.019v-.156a.489.489,0,0,0-.561-.545,2.569,2.569,0,0,0-1.016.26l-.325-.661a2.941,2.941,0,0,1,1.38-.325,1.736,1.736,0,0,1,1.112.312,1.154,1.154,0,0,1,.387.956V20.87Zm-.29-1.663-.381.013a1.2,1.2,0,0,0-.638.156.485.485,0,0,0-.21.43q0,.414.478.414a.754.754,0,0,0,.547-.2.684.684,0,0,0,.2-.52Z" transform="translate(-21.739 -6.461)"/>
    <path id="Path_14880" data-name="Path 14880" d="M69.643,19.809a.987.987,0,0,1-.385.841,1.908,1.908,0,0,1-1.153.289,3.65,3.65,0,0,1-.67-.053,2.528,2.528,0,0,1-.519-.156v-.809a3.431,3.431,0,0,0,.618.215,2.474,2.474,0,0,0,.6.087c.357,0,.536-.1.536-.312a.258.258,0,0,0-.071-.188,1.029,1.029,0,0,0-.245-.164q-.175-.093-.464-.213a2.963,2.963,0,0,1-.611-.321A.918.918,0,0,1,67,18.688a1.124,1.124,0,0,1-.088-.467.856.856,0,0,1,.372-.74,1.819,1.819,0,0,1,1.056-.262A3,3,0,0,1,69.6,17.5l-.3.706a5.192,5.192,0,0,0-.507-.189,1.6,1.6,0,0,0-.48-.078q-.435,0-.435.234a.275.275,0,0,0,.14.228,3.849,3.849,0,0,0,.614.286,2.829,2.829,0,0,1,.619.318.945.945,0,0,1,.29.34A1.049,1.049,0,0,1,69.643,19.809Z" transform="translate(-25.119 -6.464)"/>
    <path id="Path_14881" data-name="Path 14881" d="M74.577,19.812a.986.986,0,0,1-.385.841,1.909,1.909,0,0,1-1.152.289,3.658,3.658,0,0,1-.671-.053,2.518,2.518,0,0,1-.518-.156v-.809a3.419,3.419,0,0,0,.617.215,2.484,2.484,0,0,0,.6.087q.535,0,.535-.312a.255.255,0,0,0-.071-.188,1,1,0,0,0-.245-.164q-.174-.093-.464-.213a2.943,2.943,0,0,1-.611-.321.91.91,0,0,1-.287-.333,1.11,1.11,0,0,1-.088-.467.851.851,0,0,1,.372-.74,1.816,1.816,0,0,1,1.055-.262,3,3,0,0,1,1.267.283l-.3.706a5.239,5.239,0,0,0-.506-.189,1.6,1.6,0,0,0-.48-.078q-.435,0-.436.234a.275.275,0,0,0,.141.228,3.811,3.811,0,0,0,.614.286,2.8,2.8,0,0,1,.618.318.936.936,0,0,1,.29.34A1.038,1.038,0,0,1,74.577,19.812Z" transform="translate(-26.97 -6.467)"/>
    <path id="Path_14882" data-name="Path 14882" d="M79.279,20.87l-.188-.487h-.026a1.457,1.457,0,0,1-.511.432,1.658,1.658,0,0,1-.685.121,1.109,1.109,0,0,1-.816-.3,1.134,1.134,0,0,1-.3-.841.946.946,0,0,1,.4-.843,2.324,2.324,0,0,1,1.21-.3l.626-.019v-.156a.489.489,0,0,0-.561-.545,2.569,2.569,0,0,0-1.016.26l-.325-.661a2.942,2.942,0,0,1,1.377-.326,1.736,1.736,0,0,1,1.112.312,1.154,1.154,0,0,1,.387.956V20.87Zm-.29-1.663-.381.013a1.2,1.2,0,0,0-.638.156.484.484,0,0,0-.21.43c0,.277.156.414.477.414a.756.756,0,0,0,.547-.2.686.686,0,0,0,.2-.52Z" transform="translate(-28.815 -6.461)"/>
    <path id="Path_14883" data-name="Path 14883" d="M86.524,20.874h-.983v-2.1A1,1,0,0,0,85.4,18.2.506.506,0,0,0,84.961,18a.665.665,0,0,0-.6.274,1.7,1.7,0,0,0-.184.911v1.687H83.2V17.286h.751l.132.459h.055a1.034,1.034,0,0,1,.453-.393,1.547,1.547,0,0,1,.656-.133,1.268,1.268,0,0,1,.954.339,1.342,1.342,0,0,1,.325.98Z" transform="translate(-31.234 -6.464)"/>
    <path id="Path_14884" data-name="Path 14884" d="M91.158,20.939q-1.682,0-1.682-1.84a1.958,1.958,0,0,1,.457-1.4,1.72,1.72,0,0,1,1.311-.483,2.51,2.51,0,0,1,1.122.244l-.289.758q-.235-.094-.432-.156a1.385,1.385,0,0,0-.4-.059q-.767,0-.767,1.085,0,1.053.767,1.053a1.744,1.744,0,0,0,.525-.078,1.921,1.921,0,0,0,.483-.234v.838a1.593,1.593,0,0,1-.482.209A2.739,2.739,0,0,1,91.158,20.939Z" transform="translate(-33.591 -6.464)"/>
    <path id="Path_14885" data-name="Path 14885" d="M96.441,20.939a1.863,1.863,0,0,1-1.36-.478,1.811,1.811,0,0,1-.49-1.355,1.985,1.985,0,0,1,.453-1.394,1.618,1.618,0,0,1,1.251-.493,1.59,1.59,0,0,1,1.188.433,1.642,1.642,0,0,1,.428,1.2v.475H95.587a.939.939,0,0,0,.248.651.878.878,0,0,0,.651.234,2.748,2.748,0,0,0,.615-.067,3.122,3.122,0,0,0,.606-.215v.757a2.294,2.294,0,0,1-.551.19A3.46,3.46,0,0,1,96.441,20.939ZM96.3,17.914a.627.627,0,0,0-.49.2.912.912,0,0,0-.2.56h1.379a.819.819,0,0,0-.19-.56.647.647,0,0,0-.5-.2Z" transform="translate(-35.511 -6.464)"/>
    <path id="Path_14886" data-name="Path 14886" d="M47.486,31.4H46.5v-2.1a1,1,0,0,0-.139-.583.5.5,0,0,0-.441-.194.665.665,0,0,0-.6.274,1.694,1.694,0,0,0-.184.91V31.4H44.16V27.813h.751l.132.459H45.1a1.034,1.034,0,0,1,.453-.393,1.545,1.545,0,0,1,.655-.133,1.268,1.268,0,0,1,.954.339,1.341,1.341,0,0,1,.326.978Z" transform="translate(-16.579 -10.416)"/>
    <path id="Path_14887" data-name="Path 14887" d="M54.115,31.4h-.983V29.3a1,1,0,0,0-.138-.583.506.506,0,0,0-.442-.194.663.663,0,0,0-.6.274,1.7,1.7,0,0,0-.184.91V31.4h-.983V27.813h.751l.132.459h.055a1.034,1.034,0,0,1,.453-.393,1.547,1.547,0,0,1,.656-.133,1.269,1.269,0,0,1,.954.339,1.339,1.339,0,0,1,.325.978Z" transform="translate(-19.067 -10.416)"/>
    <path id="Path_14888" data-name="Path 14888" d="M60.558,29.6a1.926,1.926,0,0,1-.464,1.371,1.685,1.685,0,0,1-1.293.495,1.81,1.81,0,0,1-.915-.227,1.505,1.505,0,0,1-.609-.65,2.173,2.173,0,0,1-.213-.989,1.914,1.914,0,0,1,.461-1.368,1.7,1.7,0,0,1,1.3-.488,1.825,1.825,0,0,1,.915.224,1.5,1.5,0,0,1,.609.646A2.152,2.152,0,0,1,60.558,29.6Zm-2.491,0a1.5,1.5,0,0,0,.176.806.731.731,0,0,0,1.138,0,1.5,1.5,0,0,0,.173-.808,1.475,1.475,0,0,0-.174-.8.742.742,0,0,0-1.138,0A1.478,1.478,0,0,0,58.067,29.6Z" transform="translate(-21.423 -10.416)"/>
    <path id="Path_14889" data-name="Path 14889" d="M64.189,31.442l-1.373-3.588h1.028l.7,2.045a3.641,3.641,0,0,1,.145.735h.02a3.144,3.144,0,0,1,.145-.735l.693-2.045h1.028L65.2,31.442Z" transform="translate(-23.582 -10.457)"/>
    <path id="Path_14890" data-name="Path 14890" d="M71.48,31.4l-.19-.488h-.026a1.448,1.448,0,0,1-.511.432,1.657,1.657,0,0,1-.685.121,1.112,1.112,0,0,1-.817-.3,1.128,1.128,0,0,1-.3-.841.947.947,0,0,1,.4-.843,2.319,2.319,0,0,1,1.21-.3l.626-.019V29.01a.489.489,0,0,0-.561-.545,2.572,2.572,0,0,0-1.016.26l-.325-.661a2.932,2.932,0,0,1,1.379-.324,1.736,1.736,0,0,1,1.112.312,1.153,1.153,0,0,1,.386.957V31.4Zm-.289-1.663-.381.013a1.207,1.207,0,0,0-.638.156.484.484,0,0,0-.21.43c0,.276.156.414.477.414a.758.758,0,0,0,.547-.2.687.687,0,0,0,.2-.52Z" transform="translate(-25.886 -10.414)"/>
    <path id="Path_14891" data-name="Path 14891" d="M76.7,30.267a2.146,2.146,0,0,0,.618-.112v.729a2.215,2.215,0,0,1-.9.164,1.111,1.111,0,0,1-.86-.3,1.282,1.282,0,0,1-.268-.891V28.129H74.82v-.414l.541-.328.284-.757h.626v.764H77.28v.735H76.272v1.731a.381.381,0,0,0,.118.312A.466.466,0,0,0,76.7,30.267Z" transform="translate(-28.089 -9.997)"/>
    <path id="Path_14892" data-name="Path 14892" d="M85.721,29.6a1.926,1.926,0,0,1-.464,1.371,1.685,1.685,0,0,1-1.293.495,1.81,1.81,0,0,1-.915-.227,1.505,1.505,0,0,1-.609-.65,2.173,2.173,0,0,1-.213-.989,1.914,1.914,0,0,1,.461-1.368,1.7,1.7,0,0,1,1.3-.488,1.825,1.825,0,0,1,.915.224,1.5,1.5,0,0,1,.609.646A2.151,2.151,0,0,1,85.721,29.6Zm-2.491,0a1.5,1.5,0,0,0,.176.806.731.731,0,0,0,1.138,0,1.5,1.5,0,0,0,.173-.808,1.475,1.475,0,0,0-.174-.8.742.742,0,0,0-1.138,0A1.455,1.455,0,0,0,83.23,29.6Z" transform="translate(-30.87 -10.416)"/>
    <path id="Path_14893" data-name="Path 14893" d="M92.13,31.4h-.983v-2.1a1,1,0,0,0-.138-.583.505.505,0,0,0-.442-.194.664.664,0,0,0-.6.274,1.7,1.7,0,0,0-.184.91V31.4H88.8V27.813h.753l.132.459h.055a1.034,1.034,0,0,1,.453-.393,1.549,1.549,0,0,1,.656-.133,1.268,1.268,0,0,1,.954.339,1.338,1.338,0,0,1,.325.978Z" transform="translate(-33.339 -10.416)"/>
    <path id="Path_14894" data-name="Path 14894" d="M48.682,42.526l-.19-.488h-.026a1.457,1.457,0,0,1-.511.432,1.658,1.658,0,0,1-.685.12,1.108,1.108,0,0,1-.817-.3,1.136,1.136,0,0,1-.3-.841.947.947,0,0,1,.4-.843,2.321,2.321,0,0,1,1.21-.3l.626-.019v-.156a.489.489,0,0,0-.561-.545,2.574,2.574,0,0,0-1.017.26l-.322-.664a2.947,2.947,0,0,1,1.379-.324,1.733,1.733,0,0,1,1.112.312,1.167,1.167,0,0,1,.391.956v2.392Zm-.29-1.663-.38.012a1.2,1.2,0,0,0-.638.156.482.482,0,0,0-.209.431q0,.414.477.414a.757.757,0,0,0,.547-.2.686.686,0,0,0,.2-.52Z" transform="translate(-17.328 -14.59)"/>
    <path id="Path_14895" data-name="Path 14895" d="M54.606,38.324a1.166,1.166,0,0,1,1,.5,2.267,2.267,0,0,1,.361,1.36,2.23,2.23,0,0,1-.372,1.377,1.306,1.306,0,0,1-2.012.029h-.068l-.164.395H52.6V37.412h.983v.74c0,.147-.013.384-.039.709h.039A1.141,1.141,0,0,1,54.606,38.324Zm-.313.784a.62.62,0,0,0-.532.223,1.275,1.275,0,0,0-.174.737v.106A1.51,1.51,0,0,0,53.76,41a.617.617,0,0,0,.547.25.548.548,0,0,0,.482-.277,1.5,1.5,0,0,0,.179-.808,1.418,1.418,0,0,0-.181-.794.566.566,0,0,0-.5-.265Z" transform="translate(-19.747 -14.045)"/>
    <path id="Path_14896" data-name="Path 14896" d="M61.354,41.469a.986.986,0,0,1-.385.841,1.909,1.909,0,0,1-1.152.289,3.65,3.65,0,0,1-.67-.053,2.513,2.513,0,0,1-.519-.156V41.58a3.44,3.44,0,0,0,.617.215,2.518,2.518,0,0,0,.6.086q.535,0,.535-.312a.258.258,0,0,0-.07-.188,1.021,1.021,0,0,0-.246-.164c-.116-.061-.271-.132-.464-.213a2.9,2.9,0,0,1-.614-.315.911.911,0,0,1-.284-.339,1.121,1.121,0,0,1-.088-.467.856.856,0,0,1,.372-.74,1.816,1.816,0,0,1,1.056-.262,3,3,0,0,1,1.266.283l-.3.706a5.386,5.386,0,0,0-.506-.19,1.6,1.6,0,0,0-.48-.073q-.435,0-.435.234a.274.274,0,0,0,.14.227,3.744,3.744,0,0,0,.614.286,2.868,2.868,0,0,1,.618.318.935.935,0,0,1,.29.34A1.038,1.038,0,0,1,61.354,41.469Z" transform="translate(-22.006 -14.597)"/>
    <path id="Path_14897" data-name="Path 14897" d="M43.6,17.327v.937h-1.36v2.651h-.984V17.327Z" transform="translate(-15.487 -6.505)"/>
    <path id="Path_14898" data-name="Path 14898" d="M43.808,41.977v-.936H42.236V37.406h-.984v4.571Z" transform="translate(-15.487 -14.043)"/>
    <path id="Path_14899" data-name="Path 14899" d="M42.236,31.442h-.984V27.854h.984Z" transform="translate(-15.487 -10.457)"/>
    <path id="Path_14900" data-name="Path 14900" d="M41.717,26.548a.517.517,0,1,0-.536-.516A.527.527,0,0,0,41.717,26.548Z" transform="translate(-15.46 -9.579)"/>
    <path id="Path_14901" data-name="Path 14901" d="M80.655,31.442h-.984V27.854h.984Z" transform="translate(-29.91 -10.457)"/>
    <path id="Path_14902" data-name="Path 14902" d="M80.136,26.548a.517.517,0,1,0-.536-.516A.527.527,0,0,0,80.136,26.548Z" transform="translate(-29.883 -9.579)"/>
    <path id="Path_14903" data-name="Path 14903" d="M65.337,20.915h-.983V17.327h.983Z" transform="translate(-24.16 -6.505)"/>
    <path id="Path_14904" data-name="Path 14904" d="M64.818,16.021a.517.517,0,1,0-.536-.516A.527.527,0,0,0,64.818,16.021Z" transform="translate(-24.133 -5.627)"/>
  </g>
</svg>
